<?xml version="1.0" encoding="UTF-8"?>
<svg id="Layer_2" xmlns="http://www.w3.org/2000/svg" viewBox="0 0 1080 130">
  <defs>
    <style>
      .cls-1 {
        fill: #93f233;
      }

      .cls-2 {
        fill: #5504a6;
      }
    </style>
  </defs>
  <g>
    <path class="cls-2" d="M540,126.5c-143.22,0-277.89-6.04-379.17-16.99-49.28-5.33-87.99-11.54-115.05-18.46C7.18,81.17,1.97,72.34,1.97,65.01s5.21-16.16,43.82-26.04c27.05-6.92,65.76-13.13,115.05-18.47C262.12,9.54,396.78,3.51,540,3.51s277.88,6.04,379.17,16.99c49.28,5.33,87.99,11.54,115.05,18.47,38.61,9.88,43.82,18.71,43.82,26.04s-5.21,16.16-43.82,26.04c-27.05,6.92-65.76,13.13-115.05,18.46-101.29,10.96-235.94,16.99-379.17,16.99Z"/>
    <path class="cls-1" d="M540,7c296.06,0,536.06,25.97,536.06,58s-240,58-536.06,58S3.94,97.03,3.94,65,243.94,7,540,7M540,0c-143.26,0-277.97,6.04-379.29,17-49.34,5.34-88.1,11.56-115.2,18.49-13.88,3.55-24.57,7.29-31.8,11.11-6.78,3.58-13.71,8.57-13.71,18.4s6.93,14.81,13.71,18.4c7.23,3.82,17.92,7.56,31.8,11.11,27.1,6.93,65.86,13.16,115.2,18.49,101.33,10.96,236.02,17,379.29,17s277.97-6.04,379.29-17c49.34-5.34,88.1-11.56,115.2-18.49,13.88-3.55,24.57-7.29,31.8-11.11,6.78-3.58,13.71-8.57,13.71-18.4s-6.93-14.81-13.71-18.4c-7.23-3.82-17.92-7.56-31.8-11.11-27.1-6.93-65.86-13.16-115.2-18.49C817.97,6.04,683.27,0,540,0h0Z"/>
  </g>
  <g>
    <path class="cls-2" d="M540,126.5c-138.07,0-267.88-4.16-365.52-11.72-47.5-3.68-84.8-7.96-110.87-12.73-39.11-7.16-42.38-13.34-42.38-19.05s3.27-11.89,42.38-19.05c26.07-4.77,63.37-9.05,110.87-12.73,97.64-7.56,227.45-11.72,365.52-11.72s267.88,4.16,365.52,11.72c47.5,3.68,84.8,7.96,110.87,12.73,39.11,7.16,42.38,13.33,42.38,19.05s-3.27,11.89-42.38,19.05c-26.07,4.77-63.37,9.05-110.87,12.73-97.64,7.56-227.45,11.72-365.52,11.72Z"/>
    <path class="cls-1" d="M540,43c285.42,0,516.8,17.91,516.8,40s-231.38,40-516.8,40S23.2,105.09,23.2,83s231.38-40,516.8-40M540,36c-138.1,0-267.94,4.16-365.61,11.72-47.54,3.68-84.88,7.97-110.99,12.74-13.33,2.44-23.6,5.01-30.53,7.63-3.75,1.42-6.56,2.85-8.56,4.39-3.35,2.56-5.05,6.1-5.05,10.52s1.7,7.97,5.05,10.52c2.01,1.53,4.81,2.97,8.56,4.39,6.93,2.62,17.2,5.19,30.53,7.63,26.11,4.78,63.45,9.07,110.99,12.74,97.67,7.56,227.51,11.72,365.61,11.72s267.94-4.16,365.61-11.72c47.54-3.68,84.88-7.97,110.99-12.74,13.33-2.44,23.6-5.01,30.53-7.63,3.75-1.42,6.56-2.85,8.56-4.39,3.35-2.56,5.05-6.1,5.05-10.52s-1.7-7.97-5.05-10.52c-2.01-1.53-4.81-2.97-8.56-4.39-6.93-2.62-17.2-5.19-30.53-7.63-26.11-4.78-63.45-9.07-110.99-12.74-97.67-7.56-227.51-11.72-365.61-11.72h0Z"/>
  </g>
</svg>