<?xml version="1.0" encoding="UTF-8"?>
<svg id="Layer_2" xmlns="http://www.w3.org/2000/svg" viewBox="0 0 2070.77 3273.04">
  <defs>
    <style>
      .cls-1 {
        fill: #93f233;
      }

      .cls-2 {
        fill: #5504a6;
      }
    </style>
  </defs>
  <g>
    <path class="cls-2" d="M1014.27,1046.54c-254.44,0-493.67-6.04-673.6-16.99-87.55-5.33-156.32-11.54-204.38-18.46-68.59-9.88-77.84-18.71-77.84-26.04s9.25-16.16,77.84-26.04c48.06-6.92,116.82-13.13,204.38-18.47,179.94-10.96,419.16-16.99,673.6-16.99s493.66,6.04,673.6,16.99c87.55,5.33,156.32,11.54,204.38,18.47,68.59,9.88,77.84,18.71,77.84,26.04s-9.25,16.16-77.84,26.04c-48.06,6.92-116.82,13.13-204.38,18.46-179.94,10.96-419.16,16.99-673.6,16.99Z"/>
    <path class="cls-1" d="M1014.27,927.04c525.95,0,952.32,25.97,952.32,58s-426.37,58-952.32,58-952.32-25.97-952.32-58,426.37-58,952.32-58M1014.27,920.04c-254.51,0-493.81,6.04-673.82,17-87.65,5.34-156.51,11.56-204.66,18.49-24.65,3.55-43.65,7.29-56.49,11.11-12.04,3.58-24.35,8.57-24.35,18.4s12.31,14.81,24.35,18.4c12.84,3.82,31.84,7.56,56.49,11.11,48.15,6.93,117.01,13.16,204.66,18.49,180.01,10.96,419.3,17,673.82,17s493.81-6.04,673.82-17c87.65-5.34,156.51-11.56,204.66-18.49,24.65-3.55,43.65-7.29,56.49-11.11,12.04-3.58,24.35-8.57,24.35-18.4s-12.31-14.81-24.35-18.4c-12.84-3.82-31.84-7.56-56.49-11.11-48.15-6.93-117.01-13.16-204.66-18.49-180.01-10.96-419.3-17-673.82-17h0Z"/>
  </g>
  <g>
    <path class="cls-2" d="M1014.27,1037.54c-245.29,0-475.9-4.16-649.35-11.72-84.39-3.68-150.65-7.96-196.96-12.73-69.48-7.16-75.29-13.34-75.29-19.05s5.81-11.89,75.29-19.05c46.31-4.77,112.58-9.05,196.96-12.73,173.46-7.56,404.07-11.72,649.35-11.72s475.89,4.16,649.35,11.72c84.39,3.68,150.65,7.96,196.96,12.73,69.48,7.16,75.29,13.33,75.29,19.05s-5.81,11.89-75.29,19.05c-46.31,4.77-112.58,9.05-196.96,12.73-173.46,7.56-404.07,11.72-649.35,11.72Z"/>
    <path class="cls-1" d="M1014.27,954.04c507.06,0,918.11,17.91,918.11,40s-411.05,40-918.11,40-918.11-17.91-918.11-40,411.05-40,918.11-40M1014.27,947.04c-245.33,0-476,4.16-649.51,11.72-84.45,3.68-150.79,7.97-197.17,12.74-23.68,2.44-41.93,5.01-54.24,7.63-6.67,1.42-11.65,2.85-15.21,4.39-5.96,2.56-8.98,6.1-8.98,10.52s3.02,7.97,8.98,10.52c3.57,1.53,8.54,2.97,15.21,4.39,12.31,2.62,30.55,5.19,54.24,7.63,46.38,4.78,112.72,9.07,197.17,12.74,173.51,7.56,404.17,11.72,649.51,11.72s476-4.16,649.51-11.72c84.46-3.68,150.79-7.97,197.17-12.74,23.68-2.44,41.93-5.01,54.24-7.63,6.67-1.42,11.65-2.85,15.21-4.39,5.96-2.56,8.98-6.1,8.98-10.52s-3.02-7.97-8.98-10.52c-3.57-1.53-8.54-2.97-15.21-4.39-12.31-2.62-30.55-5.19-54.24-7.63-46.38-4.78-112.72-9.07-197.17-12.74-173.51-7.56-404.17-11.72-649.51-11.72h0Z"/>
  </g>
</svg>