<?xml version="1.0" encoding="UTF-8"?>
<svg id="Layer_2" xmlns="http://www.w3.org/2000/svg" viewBox="0 0 1902.68 703.27">
  <defs>
    <style>
      .cls-1 {
        fill: #4a30f2;
      }
    </style>
  </defs>
  <path class="cls-1" d="M1902.68,351.63c0,.28-.19.57-.56.58-181.15,4.84-328.76,142.99-348.41,320.03-1.13,10.04-1.83,20.21-2.1,30.47h0c-.01.75-1.13.75-1.14.01h0c-.27-10.28-.98-20.44-2.1-30.49-5.34-48.01-20.09-93.15-42.36-133.56-54.53-86.63-99.18-144.85-362.84-160.51l2.08-.21L0,351.64h0l1146.06-26.37-2.88-.17c263.67-15.65,308.31-73.87,362.84-160.5,26.93-48.87,42.87-104.64,44.45-164.04.01-.37.28-.56.57-.56s.56.19.57.56c2.55,95.7,42.33,182.05,105.39,245.11,63.06,63.06,149.42,102.83,245.12,105.39.37.01.56.3.56.57Z"/>
</svg>