<?xml version="1.0" encoding="UTF-8"?>
<svg xmlns="http://www.w3.org/2000/svg" version="1.1" viewBox="0 0 1920 407">
  <defs>
    <style>
      .cls-1 {
        fill: #4f2ffa;
      }
    </style>
  </defs>
  <!-- Generator: Adobe Illustrator 28.6.0, SVG Export Plug-In . SVG Version: 1.2.0 Build 709)  -->
  <g>
    <g id="Layer_2">
      <path class="cls-1" d="M0,203.4l1469.9-15.3h-1.7c156.8-9.2,183.4-42.9,215.8-93,16.1-28.3,25.6-60.6,26.5-95,0-.4.7-.4.7,0,3.1,110.8,94.6,200,208.5,202.9.5,0,.5.6,0,.6-113.9,3-205.4,92.1-208.5,203,0,.4-.7.4-.7,0-.9-34.4-10.4-66.7-26.5-95-32.4-50.1-59-83.9-215.8-92.9h1.2C1469.5,218.6,0,203.4,0,203.4Z"/>
    </g>
  </g>
</svg>