<?xml version="1.0" encoding="UTF-8"?>
<svg xmlns="http://www.w3.org/2000/svg" xmlns:xlink="http://www.w3.org/1999/xlink" version="1.1" viewBox="0 0 1061.9 1062">
  <defs>
    <style>
      .cls-1 {
        fill: url(#radial-gradient-3);
      }

      .cls-2, .cls-3 {
        mix-blend-mode: multiply;
        opacity: .5;
      }

      .cls-4 {
        fill: #86009a;
      }

      .cls-5 {
        fill: url(#radial-gradient);
      }

      .cls-6, .cls-7, .cls-8 {
        fill: #8f21ac;
      }

      .cls-6, .cls-7, .cls-9 {
        mix-blend-mode: screen;
      }

      .cls-7 {
        opacity: .2;
      }

      .cls-10 {
        isolation: isolate;
      }

      .cls-3 {
        fill: url(#radial-gradient-2);
      }

      .cls-9 {
        opacity: .5;
      }
    </style>
    <radialGradient id="radial-gradient" cx="261.4" cy="97.4" fx="261.4" fy="97.4" r="1209.6" gradientUnits="userSpaceOnUse">
      <stop offset="0" stop-color="#8f21ac"/>
      <stop offset=".3" stop-color="#8b1ea8"/>
      <stop offset=".6" stop-color="#81169e"/>
      <stop offset=".9" stop-color="#710a8d"/>
      <stop offset="1" stop-color="#640080"/>
      <stop offset="1" stop-color="#660082"/>
    </radialGradient>
    <radialGradient id="radial-gradient-2" cx="681" cy="571.9" fx="681" fy="571.9" r="1152.4" xlink:href="#radial-gradient"/>
    <radialGradient id="radial-gradient-3" cx="553.1" cy="558.7" fx="553.1" fy="558.7" r="421.3" xlink:href="#radial-gradient"/>
  </defs>
  <!-- Generator: Adobe Illustrator 28.6.0, SVG Export Plug-In . SVG Version: 1.2.0 Build 709)  -->
  <g class="cls-10">
    <g id="Layer_1">
      <g>
        <path class="cls-5" d="M1029.8,589.7c1.6-16.6,2.5-33.4,2.5-50.4,0-122.4-43.1-234.6-114.8-322.6,13.9-18.1,1.7-55.4-28.5-85.5-31.6-31.5-71-43.3-88-26.3-1.4,1.4-2.5,3-3.5,4.6-79.6-51.2-174.3-81.1-276-81.1s-8.1.2-12.1.3c-10.1-24.1-62.3-35.3-121.8-25-63.3,10.9-110.9,42-106.1,69.4.8,4.4,3,8.4,6.2,12.1C123.1,170.1,10.6,341.5,10.6,539.3s27.2,188.2,74.4,265.6c-1.4,1.1-2.8,2.1-4.1,3.4-24.4,24.5-7.3,81.2,38.2,126.5,45.5,45.4,102.2,62.3,126.6,37.8.7-.7,1.2-1.5,1.9-2.2,79.2,50.4,173.1,79.7,273.9,79.7s75.8-4.4,111.8-12.4c10.2,21.6,50.2,30.4,93.6,19.7,46.4-11.5,79.1-41.2,72.9-66.2-1.6-6.4-5.6-11.9-11.4-16.3,101.6-62.4,179.7-159.4,217.9-274.5,1.1.4,2.1,1,3.2,1.2,16.6,3,34.7-19.6,40.3-50.5,5.6-30.9-3.3-58.4-19.9-61.4Z"/>
        <g class="cls-9">
          <path class="cls-8" d="M943.2,254.2c4.1,5,8.1,10.2,12,15.3-3.6-5.8-7.3-11.4-11.1-17-.3.5-.5,1.2-.9,1.7Z"/>
          <path class="cls-8" d="M108.9,924c-16.3-31.7-18.4-62-2.3-78.2,1.3-1.3,2.7-2.4,4.1-3.4-47.2-77.4-74.4-168.3-74.4-265.6,0-197.8,112.5-369.2,276.9-454.1-3.2-3.6-5.4-7.7-6.2-12.1-4.7-27.4,42.8-58.5,106.1-69.4,59.5-10.2,111.7.9,121.8,25,4,0,8.1-.3,12.1-.3,101.7,0,196.4,29.8,276,81.1,1-1.7,2.1-3.3,3.5-4.6,17-17,56.4-5.3,88,26.3.7.7,1.2,1.4,1.8,2-5.7-13.1-15-26.9-27.6-39.5-31.6-31.5-71-43.3-88-26.3-1.4,1.4-2.5,3-3.5,4.6-79.6-51.2-174.3-81.1-276-81.1s-8.1.2-12.1.3c-10.1-24.1-62.3-35.3-121.8-25-63.3,10.9-110.9,42-106.1,69.4.8,4.4,3,8.4,6.2,12.1C123.1,170.1,10.6,341.5,10.6,539.3s27.2,188.2,74.4,265.6c-1.4,1.1-2.8,2.1-4.1,3.4-22.5,22.6-9.7,72.4,28,115.6Z"/>
        </g>
        <g>
          <path class="cls-6" d="M233.1,167.4c20.2,10,18.8,54-3.2,98.4-21.9,44.4-56,72.3-76.2,62.3-20.2-10-18.8-54,3.2-98.4,21.9-44.4,56-72.3,76.2-62.3Z"/>
          <path class="cls-6" d="M183.9,239.6c16.3-33.1,39.4-56.9,58.5-62.9-2.3-4.2-5.4-7.5-9.3-9.4-20.2-10-54.3,17.9-76.2,62.3-21.9,44.4-23.3,88.4-3.2,98.4,5.1,2.5,11.2,2.6,17.7.6-9.6-17.6-5.3-53.2,12.4-89Z"/>
        </g>
        <g>
          <path class="cls-6" d="M101.5,352.9c16.3-1.5,32.2,26.4,35.5,62.3,3.3,35.9-7.2,66.2-23.5,67.7-16.3,1.5-32.2-26.4-35.5-62.3-3.3-35.9,7.2-66.2,23.5-67.7Z"/>
          <path class="cls-6" d="M98.5,416.5c-2.5-26.7,2.8-50.4,12.3-61.3-3-1.8-6.2-2.6-9.3-2.3-16.3,1.5-26.9,31.8-23.5,67.7,3.3,35.9,19.2,63.8,35.5,62.3,4.2-.4,7.9-2.7,11.2-6.4-12.7-7.3-23.5-31-26.2-60Z"/>
        </g>
        <g>
          <path class="cls-6" d="M906.6,460.5c-15.8,4.5-36.6-19.9-46.5-54.6-9.9-34.7-5.2-66.4,10.6-70.9,15.8-4.5,36.6,19.9,46.5,54.6,9.9,34.7,5.2,66.4-10.6,70.9Z"/>
          <path class="cls-6" d="M897.8,397.5c7.4,25.8,6.6,50-.7,62.5,3.3,1.2,6.5,1.4,9.6.5,15.8-4.5,20.5-36.3,10.6-70.9-9.9-34.7-30.7-59.1-46.5-54.6-4,1.1-7.3,4.1-9.8,8.4,13.8,4.8,28.9,26.1,36.9,54.1Z"/>
        </g>
        <g>
          <path class="cls-6" d="M487.5,956c-2.4-16.2,24.6-33.6,60.3-38.8,35.7-5.2,66.5,3.7,68.9,19.9,2.4,16.2-24.6,33.6-60.3,38.8-35.7,5.2-66.5-3.7-68.9-19.9Z"/>
          <path class="cls-6" d="M551.1,955.7c-26.6,3.9-50.5,0-61.9-9.1-1.6,3.1-2.3,6.3-1.8,9.4,2.4,16.2,33.2,25.1,68.9,19.9,35.7-5.2,62.7-22.6,60.3-38.8-.6-4.1-3.1-7.8-7-10.9-6.6,13-29.7,25.2-58.5,29.4Z"/>
        </g>
        <g>
          <path class="cls-6" d="M104.5,823.4c14.9-14.5,52.8.2,84.8,32.9,31.9,32.7,45.8,71,30.9,85.5-14.9,14.5-52.8-.2-84.8-32.9-31.9-32.7-45.8-71-30.9-85.5Z"/>
          <path class="cls-6" d="M152.4,888.4c-23.8-24.4-37.5-51.8-36.9-70.2-4.4.7-8.1,2.4-11,5.2-14.9,14.5-1,52.8,30.9,85.5,31.9,32.7,69.9,47.4,84.8,32.9,3.8-3.7,5.7-9,5.9-15.3-18.3,2.9-48-11.7-73.7-38.1Z"/>
        </g>
        <g>
          <path class="cls-6" d="M901.7,198.1c-9.2,9.9-34.3,1.6-56.1-18.6-21.8-20.2-32-44.6-22.9-54.5,9.2-9.9,34.3-1.6,56.1,18.6,21.8,20.2,32,44.6,22.9,54.5Z"/>
          <path class="cls-6" d="M868.5,157.5c16.2,15,26,32.4,26.2,44.4,2.8-.6,5.2-1.8,7-3.7,9.2-9.9-1.1-34.3-22.9-54.5-21.8-20.2-46.9-28.5-56.1-18.6-2.3,2.5-3.4,6-3.3,10.1,11.8-2.5,31.5,6.1,49.1,22.3Z"/>
        </g>
        <g>
          <path class="cls-6" d="M668.9,1034.9c-5.1-12.5,13.1-31.7,40.6-43,27.5-11.2,53.9-10.2,59,2.3,5.1,12.5-13.1,31.7-40.6,43-27.5,11.2-53.9,10.2-59-2.3Z"/>
          <path class="cls-6" d="M719.8,1022c-20.5,8.4-40.4,9.9-51.3,5-.7,2.8-.6,5.5.4,7.9,5.1,12.5,31.5,13.5,59,2.3,27.5-11.2,45.7-30.5,40.6-43-1.3-3.2-4-5.6-7.7-7.3-2.7,11.7-18.8,26-41,35.1Z"/>
        </g>
        <g>
          <path class="cls-6" d="M1013.7,683.1c-9.7-.7-16.4-18.6-14.9-40.1,1.5-21.4,10.6-38.3,20.4-37.6,9.7.7,16.4,18.6,14.9,40.1-1.5,21.4-10.6,38.3-20.4,37.6Z"/>
          <path class="cls-6" d="M1021.6,645.9c-1.1,16-6.5,29.4-13.2,34.9,1.6,1.3,3.4,2.1,5.3,2.2,9.7.7,18.9-16.1,20.4-37.6,1.5-21.4-5.2-39.4-14.9-40.1-2.5-.2-4.9.8-7.2,2.7,6.8,5.5,10.9,20.5,9.7,37.8Z"/>
        </g>
        <g>
          <path class="cls-6" d="M464.5,33.6c4.1,17.7-24.2,39.4-63.2,48.5-39,9-74,2-78.1-15.8-4.1-17.7,24.2-39.4,63.2-48.5,39-9,74-2,78.1,15.8Z"/>
          <path class="cls-6" d="M394.1,39.9c29.1-6.7,55.9-4.5,69.4,4.4,1.5-3.6,1.9-7.2,1.1-10.6-4.1-17.7-39.1-24.8-78.1-15.8-39,9-67.3,30.7-63.2,48.5,1,4.5,4.1,8.3,8.7,11.4,6.1-15,30.6-30.6,62.1-37.9Z"/>
        </g>
        <g>
          <ellipse class="cls-6" cx="532.1" cy="263.2" rx="91.9" ry="78.2"/>
          <path class="cls-6" d="M534.9,223.4c41,0,75.7,22.8,87.5,54.3,1-4.7,1.7-9.6,1.7-14.6,0-43.2-41.2-78.2-91.9-78.2s-91.9,35-91.9,78.2,1.6,16.3,4.4,23.9c8-36.2,45.4-63.7,90.3-63.7Z"/>
        </g>
        <g>
          <ellipse class="cls-6" cx="248.3" cy="675.4" rx="58.8" ry="69.1" transform="translate(-226.1 134.4) rotate(-21.1)"/>
          <path class="cls-6" d="M219.7,684.2c-11.1-28.8-4.4-59.3,14.5-76.1-3.6.5-7.2,1.4-10.7,2.8-30.3,11.7-43.8,50-30,85.7,13.7,35.6,49.4,55.1,79.7,43.4,5.8-2.3,11-5.5,15.6-9.5-27.6,4.2-56.9-14.6-69.1-46.2Z"/>
        </g>
        <g>
          <path class="cls-6" d="M542.6,712.9c-21.6-25.2-15.1-66.3,14.5-91.7,29.6-25.4,71.2-25.6,92.8-.4,21.6,25.2,15.1,66.3-14.5,91.7-29.6,25.4-71.2,25.6-92.8.4Z"/>
          <path class="cls-6" d="M614.6,691.4c-23.9,20.5-55.6,24.6-78.3,12.1,1.8,3.3,3.8,6.4,6.3,9.3,21.6,25.2,63.2,25,92.8-.4,29.6-25.4,36.1-66.5,14.5-91.7-4.2-4.9-9.1-8.8-14.5-11.7,13.5,25.2,5.4,59.9-20.8,82.4Z"/>
        </g>
        <g>
          <path class="cls-6" d="M720.6,695c-10.8-12.6-7.6-33.2,7.3-45.9,14.9-12.7,35.7-12.8,46.5-.2,10.8,12.6,7.6,33.2-7.3,45.9-14.8,12.7-35.7,12.8-46.5.2Z"/>
          <path class="cls-6" d="M756.7,684.3c-12,10.3-27.9,12.3-39.2,6.1.9,1.6,1.9,3.2,3.2,4.7,10.8,12.6,31.7,12.6,46.5-.2,14.8-12.7,18.1-33.3,7.3-45.9-2.1-2.4-4.6-4.4-7.3-5.9,6.7,12.6,2.7,30-10.4,41.3Z"/>
        </g>
        <g class="cls-2">
          <path class="cls-4" d="M466.1,92.5c-.2-1.8,10.4-5.2,18.5-12,8.3-6.7,13.7-15.4,13.7-15.4,0,0,6.9-7.7,10.9-17.5,4.2-9.7,4.4-20.9,6.2-21.2,1.7-.4,5.2,11.4,2.7,23.7-2.2,12.2-9.3,22.8-9.3,22.8,0,0-8.1,9.8-19.2,15.4-11.1,5.9-23.4,6-23.5,4.2Z"/>
          <path class="cls-4" d="M359.8,123.6c.2,1.8-9,4.2-18.5,4.9-9.5.8-19.1,0-19.1,0,0,0-9.3-2.3-18.1-6.1-8.8-3.8-16.7-9-15.9-10.6.7-1.7,9.7.4,18.5,1.7,8.9,1.4,17.6,2,17.6,2,0,0,8.5,2.2,17.3,3.8,8.8,1.6,17.9,2.6,18.1,4.4Z"/>
          <path class="cls-4" d="M475.6,366.5c0,1.9-20.6,1.8-38.7-8.2-9-4.7-17.2-11.2-22.5-16.8-5.4-5.6-8.4-9.9-8.4-9.9,0,0-2.9-4.4-5.9-11.6-3.1-7.1-6-17.1-6.8-27.3-2.3-20.6,5.6-39.7,7.3-38.9,1.7.5-2.5,19.5,1.8,37.6,1.9,9,5.3,17.5,8.6,23.4,3.2,5.9,5.9,9.5,5.9,9.5,0,0,2.2,3.9,6.5,9.1,4.2,5.3,10.7,11.7,18.3,16.9,15,11,34.2,14.4,34,16.1Z"/>
          <path class="cls-4" d="M668.4,272c-1.8-.4-2.1-7.7-3.5-14.5-1.3-6.9-3.5-13.2-3.5-13.2,0,0-.7-6.7-2.3-13.5-1.6-6.8-4.3-13.5-2.9-14.6,1.4-1.1,7.2,4.2,11.4,10.9,4.2,6.7,6.6,14.3,6.6,14.3,0,0,1,8,0,15.8-1,7.9-4,15-5.8,14.7Z"/>
          <path class="cls-4" d="M182.8,475.8c1.8-.6,5.5,11.3.9,23-2.1,5.7-5.7,11-9.1,14.3-3.4,3.4-6.2,5.1-6.2,5.1,0,0-2.9,1.6-7.5,2.8-4.6,1.3-10.9,1.7-16.9.6-12.4-1.9-20.8-11.2-19.4-12.4,1.1-1.3,10.4,4,20.2,3.2,4.8-.2,9.3-1.4,12.4-2.8,3.1-1.4,4.8-2.7,4.8-2.7,0,0,2-.8,4.7-2.8,2.8-1.9,6.1-5.2,8.7-9.2,5.6-8,5.8-18.7,7.5-19Z"/>
          <path class="cls-4" d="M213.2,340.8c-1.4-1.4,12.5-16.6,25-32.4,6.2-7.9,12-16.1,15.9-22.4,3.9-6.3,6.1-10.7,6.1-10.7,0,0,2.7-4.1,6-10.6,3.4-6.5,7.1-15.6,9.4-25.1,2.4-9.5,3.2-19.4,2.9-26.8-.2-7.5-1.1-12.5-.1-12.8.8-.3,3.4,4.4,5.2,12.1,1.9,7.7,2.5,18.5,1.2,29.1-1.3,10.6-4.5,20.9-7.5,28.4-3,7.5-5.6,12.2-5.6,12.2,0,0-2.8,4.6-7.5,10.9-4.7,6.4-11.6,14.4-18.9,21.7-14.7,14.7-30.7,27.4-31.9,26.2Z"/>
          <path class="cls-4" d="M267.2,570.6c-1.1,1.5-11.7-3.6-22.9-4.1-11.2-.8-21.8,2.1-21.8,2.1,0,0-10.9,1.2-21,6.1-10.2,4.6-18.3,13.3-19.8,12.3-1.6-.8,4.3-12.4,14.9-20.2,10.4-7.9,23.4-11,23.4-11,0,0,13.3-1.9,25.8,1.6,12.8,3.2,22.5,11.9,21.3,13.2Z"/>
          <path class="cls-4" d="M322.3,741.6c-1.2-1.3,8.2-12.8,12.6-26.4,2.2-6.8,3.7-13.6,4.2-18.8.6-5.2.7-8.7.7-8.7,0,0,.4-3.4.7-8.7.3-5.2-.2-12.3-1.3-19.3-2.3-14.1-9.8-26.9-8.4-28,1.3-1.2,12.2,10.4,17.3,25.6,5.4,15,4.7,31.3,4.7,31.3,0,0-1.8,16.2-9.5,30.2-7.4,14.3-20,24-21.1,22.6Z"/>
          <path class="cls-4" d="M192.3,821.3c-1.5,1.1-10.7-8.4-22.1-14.3-11.2-6.1-23.5-8.7-23.5-8.7,0,0-11.7-4.3-24.5-5.1-12.7-1.1-25.6,2-26.3.3-.8-1.6,11.8-8.2,26.1-9.6,14.2-1.6,28.4,1.8,28.4,1.8,0,0,13.8,4.6,25,13.6,11.4,8.8,18.5,21.1,16.9,22Z"/>
          <path class="cls-4" d="M274.9,963.9c-1.8-.5.4-15.8-2.5-30.4-1.5-7.3-3.6-14.3-5.7-19.4-2.1-5.1-3.7-8.3-3.7-8.3,0,0-1.3-3.4-3.7-8.3-2.4-5-6.2-11.2-10.7-17.2-9-11.9-21.8-20.4-21-22.1.7-1.7,16,4.3,27.9,15.8,12.1,11.3,19.5,26.4,19.5,26.4,0,0,6.3,15.6,6.7,32.1.7,16.6-5,32-6.7,31.3Z"/>
          <path class="cls-4" d="M512.9,734.6c-.3.7-4.4,0-9.4-3.6-5.1-3.4-10.5-10.1-13.9-17.6-3.4-7.5-5.3-15.4-6.1-21.4-.9-6-.9-10-.9-10,0,0,.8-15.9,5.3-31,4.2-15.2,11.7-28.8,13.3-28.1,1.7.7-2.6,15.2-4.3,29.9-1.9,14.7-1.2,29.2-1.2,29.2,0,0-1.4,14.5,2.5,28.1,1.9,6.8,5.2,13,8.6,17.1,3.4,4.1,6.5,6.4,6,7.3Z"/>
          <path class="cls-4" d="M656.3,562.6c-.2,1.8-9.5,2.4-18.3,4-8.9,1.5-17.4,3.8-17.4,3.8,0,0-8.8.8-17.6,2.4-8.9,1.6-17.7,4.2-18.6,2.5-.8-1.6,6.9-7.3,15.7-11.3,8.7-4.1,18.2-6.5,18.2-6.5,0,0,9.7-1,19.4-.1,9.7.8,18.9,3.5,18.6,5.3Z"/>
          <path class="cls-4" d="M846.2,431.6c-1.5,1-11.8-11.7-18.2-26.9-6.8-15-9.4-31.6-9.4-31.6,0,0-1.4-16.7,1.8-33,1.5-8.2,4.9-16.5,9.4-21.3,4.5-5,9-5.9,9.3-5.2.5.9-2.7,3.3-5.1,8.2-2.6,4.8-4.1,12.1-4.4,19.6-.7,15.3,2,30.3,2,30.3,0,0,.9,15.2,5.1,30,3.8,14.9,11,29,9.5,30Z"/>
          <path class="cls-4" d="M917.8,501.7c0,1.8-7,3.1-14.1,2.7-7.1-.3-14.1-2.4-14.1-2.4,0,0-6.4-3.4-11.7-8.1-5.4-4.7-9.4-10.5-8.2-11.8,1.2-1.3,7.1,1.7,13.1,3.9,5.9,2.3,11.8,3.9,11.8,3.9,0,0,5.3,3,11.2,5.5,5.8,2.6,12.1,4.5,12.1,6.3Z"/>
          <path class="cls-4" d="M818.5,204.3c-.5,1.7-11.7-.6-21.7-6.5-10-5.8-18-14.5-18-14.5,0,0-6.9-9.6-10.5-20.6-3.8-11-3.7-22.4-1.9-22.6,1.8-.2,5,10,10.3,18.8,5.3,8.9,12.2,16.1,12.2,16.1,0,0,5.6,8.3,13.3,15.3,7.5,7.1,16.8,12.3,16.2,14Z"/>
          <path class="cls-4" d="M920.6,235.9c.9,1.6-3.3,5.5-8.8,7.7-5.4,2.3-11.4,2.7-11.4,2.7,0,0-6-1-11.1-3.9-5.2-2.8-9-7.1-8-8.6,1-1.5,6-.4,10.7-.3,4.7.2,9-.4,9-.4,0,0,4.3,1,9,1.3,4.7.4,9.7-.3,10.6,1.4Z"/>
          <path class="cls-4" d="M514.8,891.1c.5,1.8-12.3,6.5-23.7,12.9-5.7,3.2-11,6.8-14.6,9.8-3.6,3-5.7,5.2-5.7,5.2,0,0-2.4,1.8-5.6,5.1-3.2,3.3-7,8.2-9.8,13.7-2.8,5.5-4.5,11.6-5,16.4-.6,4.8-.5,8.2-1.4,8.4-.8.2-2.7-2.9-3.7-8.3-1.1-5.4-.7-12.9,1.5-20,2.1-7.1,5.8-13.6,9.2-18.1,3.3-4.5,6.1-7.1,6.1-7.1,0,0,2.8-2.4,7.5-5.3,4.6-2.9,11.1-6.1,17.8-8.4,13.4-4.7,27.1-6.1,27.5-4.4Z"/>
          <path class="cls-4" d="M654.5,908.5c-1.7.6-5.5-3.9-10-6.7-4.5-3-9.4-4.5-9.4-4.5,0,0-4.1-3-9.2-4.9-5-2-10.9-2.3-11.4-4.1-.5-1.7,5.5-4.9,12.6-5.1,7-.3,13.8,2.3,13.8,2.3,0,0,6.2,3.9,10.1,9.7,4.1,5.8,5.1,12.6,3.4,13.2Z"/>
          <path class="cls-4" d="M680.2,986.2c1,1.6-5.8,7.5-12.1,13.6-6.4,6-11.7,12.3-11.7,12.3,0,0-6.5,5.1-11.2,11.7-5,6.4-7,14.8-8.9,14.8-1.8.1-3.2-9.8.7-19.2,3.5-9.3,10.1-16.6,10.1-16.6,0,0,7.4-6.3,15.5-10.6,8.1-4.4,16.6-7.6,17.6-6.1Z"/>
          <path class="cls-4" d="M786.2,964c-1.5,1.1-7.5-3.6-14.4-5.1-6.9-1.6-13.6-.7-13.6-.7,0,0-6.7-.8-13.6.9-6.9,1.5-12.8,6.3-14.3,5.3-1.5-.9,2.6-9,10.6-13.7,7.8-4.8,17.2-5.5,17.2-5.5,0,0,9.4.6,17.3,5.3,8.1,4.6,12.3,12.6,10.8,13.6Z"/>
          <path class="cls-4" d="M988.5,633.4c-1.8-.3-2.1-8.2-.4-16,1.7-7.8,5.3-15.2,5.3-15.2,0,0,4.8-6.6,11-11.7,6.2-5.2,13.3-8.6,14.4-7.1,1.1,1.5-3.7,7.2-7.5,13.3-3.8,6.1-6.7,12.3-6.7,12.3,0,0-4.2,5.5-7.8,11.7-3.6,6.1-6.5,13-8.3,12.8Z"/>
          <path class="cls-4" d="M1003.4,705.2c-.9,1.6-5.6.6-9.8-1.6-4.2-2.1-7.8-5.4-7.8-5.4,0,0-2.4-4.2-3.6-8.8-1.2-4.6-1.1-9.4.6-9.9,1.7-.6,4.6,2.7,7.5,5.4,2.9,2.8,5.8,5.1,5.8,5.1,0,0,1.7,3.3,3.8,6.7,2,3.4,4.6,6.9,3.6,8.5Z"/>
          <path class="cls-4" d="M790.2,631.2c-1.7.3-5.7-7.3-12.7-11.2-6.7-4.3-14.3-4.9-14.3-4.9,0,0-7.2-2.4-15.6-1.7-8.3.3-16.7,3.3-17.6,1.8-.9-1.5,6.3-7.8,15.8-10.8,4.7-1.6,9.7-2.3,13.6-2.4,3.9,0,6.5.3,6.5.3,0,0,2.6.7,6.2,2.3,3.6,1.6,8,4.6,11.4,8.3,7.5,7.5,8.6,18.1,6.7,18.3Z"/>
          <path class="cls-4" d="M775.8,733.8c1.2,1.4-7.2,9.4-18.8,11.8-5.6,1.3-11.6,1.4-16,.8-4.4-.6-7.4-1.5-7.4-1.5,0,0-2.8-1.1-6.6-3.6-3.8-2.4-8.3-6.3-11.8-11-7.3-9.3-8.6-20.9-6.8-21.2,1.7-.4,6.1,8.9,13.6,14.9,7.3,6.4,16,8.5,16,8.5,0,0,8.1,4,17.8,3.8,9.6.3,19-4,20-2.6Z"/>
        </g>
        <path class="cls-3" d="M1029.8,589.7c1.6-16.6,2.5-33.4,2.5-50.4,0-122.4-43.1-234.6-114.8-322.6,13.9-18.1,1.7-55.4-28.5-85.5-21.2-21.1-45.9-33.3-64.9-34,44.7,70.4,70.6,153.5,70.6,242.5,0,254.2-210.5,460.3-470.2,460.3S90.7,702.7,11,559.3c3.5,89.8,30.1,173.6,74,245.6-1.4,1.1-2.8,2.1-4.1,3.4-24.4,24.5-7.3,81.2,38.2,126.5,45.5,45.4,102.2,62.3,126.6,37.8.7-.7,1.2-1.5,1.9-2.2,79.2,50.4,173.1,79.7,273.9,79.7s75.8-4.4,111.8-12.4c10.2,21.6,50.2,30.4,93.6,19.7,46.4-11.5,79.1-41.2,72.9-66.2-1.6-6.4-5.6-11.9-11.4-16.3,101.6-62.4,179.7-159.4,217.9-274.5,1.1.4,2.1,1,3.2,1.2,16.6,3,34.7-19.6,40.3-50.5,5.6-30.9-3.3-58.4-19.9-61.4Z"/>
        <ellipse class="cls-7" cx="456.3" cy="395.7" rx="308.5" ry="307.2"/>
        <path class="cls-1" d="M485.9,502.6c0,9.3-7.5,16.8-16.8,16.8s-16.8-7.5-16.8-16.8,7.5-16.8,16.8-16.8,16.8,7.5,16.8,16.8ZM557.6,510.4c-11.1,0-20.2,9-20.2,20.2s9,20.2,20.2,20.2,20.2-9,20.2-20.2-9-20.2-20.2-20.2ZM763.9,304.2c-14.9,0-26.9,12-26.9,26.9s12,26.9,26.9,26.9,26.9-12,26.9-26.9-12-26.9-26.9-26.9ZM752.7,434.2c-7.4,0-13.5,6-13.5,13.5s6,13.5,13.5,13.5,13.5-6,13.5-13.5-6-13.5-13.5-13.5ZM828.9,508.2c-6.2,0-11.2,5-11.2,11.2s5,11.2,11.2,11.2,11.2-5,11.2-11.2-5-11.2-11.2-11.2ZM450,817.7c-16.1,0-29.2,13.1-29.2,29.2s13.1,29.2,29.2,29.2,29.2-13.1,29.2-29.2-13.1-29.2-29.2-29.2ZM538.6,837.8c-5.6,0-10.1,4.5-10.1,10.1s4.5,10.1,10.1,10.1,10.1-4.5,10.1-10.1-4.5-10.1-10.1-10.1ZM707.9,858c-8.7,0-15.7,7-15.7,15.7s7,15.7,15.7,15.7,15.7-7,15.7-15.7-7-15.7-15.7-15.7ZM836.8,797.5c-16.7,0-30.3,13.6-30.3,30.3s13.6,30.3,30.3,30.3,30.3-13.6,30.3-30.3-13.6-30.3-30.3-30.3ZM791.9,900.6c-5.6,0-10.1,4.5-10.1,10.1s4.5,10.1,10.1,10.1,10.1-4.5,10.1-10.1-4.5-10.1-10.1-10.1ZM944.4,705.5c-8.1,0-14.6,6.5-14.6,14.6s6.5,14.6,14.6,14.6,14.6-6.5,14.6-14.6-6.5-14.6-14.6-14.6ZM399.5,965.7c-8,0-14.6,6.5-14.6,14.6s6.5,14.6,14.6,14.6,14.6-6.5,14.6-14.6-6.5-14.6-14.6-14.6ZM165.2,656.2c-9.9,0-17.9,8-17.9,17.9s8,17.9,17.9,17.9,17.9-8,17.9-17.9-8-17.9-17.9-17.9ZM300.9,828.9c-5.6,0-10.1,4.5-10.1,10.1s4.5,10.1,10.1,10.1,10.1-4.5,10.1-10.1-4.5-10.1-10.1-10.1ZM337.9,405.1c-13.6,0-24.7,11-24.7,24.7s11,24.7,24.7,24.7,24.7-11,24.7-24.7-11-24.7-24.7-24.7ZM385,580c-3.7,0-6.7,3-6.7,6.7s3,6.7,6.7,6.7,6.7-3,6.7-6.7-3-6.7-6.7-6.7ZM408.5,214.5c-6.8,0-12.3,5.5-12.3,12.3s5.5,12.3,12.3,12.3,12.3-5.5,12.3-12.3-5.5-12.3-12.3-12.3ZM464.6,187.5c-6.8,0-12.3,5.5-12.3,12.3s5.5,12.3,12.3,12.3,12.3-5.5,12.3-12.3-5.5-12.3-12.3-12.3ZM661.9,122.5c-20.4,0-37,16.6-37,37s16.6,37,37,37,37-16.6,37-37-16.6-37-37-37ZM664.1,239.1c-4.3,0-7.8,3.5-7.8,7.8s3.5,7.8,7.8,7.8,7.8-3.5,7.8-7.8-3.5-7.8-7.8-7.8Z"/>
      </g>
    </g>
  </g>
</svg>