<?xml version="1.0" encoding="UTF-8"?>
<svg xmlns="http://www.w3.org/2000/svg" xmlns:xlink="http://www.w3.org/1999/xlink" version="1.1" viewBox="0 0 1061.9 1062">
  <defs>
    <style>
      .cls-1 {
        fill: url(#radial-gradient-71);
      }

      .cls-1, .cls-2, .cls-3, .cls-4, .cls-5, .cls-6, .cls-7, .cls-8, .cls-9, .cls-10, .cls-11, .cls-12, .cls-13, .cls-14, .cls-15, .cls-16, .cls-17, .cls-18, .cls-19, .cls-20, .cls-21, .cls-22, .cls-23, .cls-24, .cls-25, .cls-26, .cls-27, .cls-28, .cls-29, .cls-30, .cls-31, .cls-32, .cls-33, .cls-34, .cls-35, .cls-36, .cls-37, .cls-38, .cls-39, .cls-40, .cls-41, .cls-42, .cls-43, .cls-44, .cls-45, .cls-46, .cls-47, .cls-48, .cls-49, .cls-50, .cls-51, .cls-52, .cls-53, .cls-54, .cls-55, .cls-56, .cls-57, .cls-58, .cls-59, .cls-60, .cls-61, .cls-62, .cls-63, .cls-64, .cls-65, .cls-66, .cls-67, .cls-68 {
        mix-blend-mode: multiply;
      }

      .cls-1, .cls-2, .cls-69, .cls-70 {
        opacity: .5;
      }

      .cls-2 {
        fill: url(#radial-gradient-70);
      }

      .cls-71 {
        fill: url(#radial-gradient-3);
      }

      .cls-3 {
        fill: url(#radial-gradient-18);
      }

      .cls-4 {
        fill: url(#radial-gradient-15);
      }

      .cls-5 {
        fill: url(#radial-gradient-11);
      }

      .cls-6 {
        fill: url(#radial-gradient-17);
      }

      .cls-7 {
        fill: url(#radial-gradient-19);
      }

      .cls-8 {
        fill: url(#radial-gradient-10);
      }

      .cls-9 {
        fill: url(#radial-gradient-12);
      }

      .cls-10 {
        fill: url(#radial-gradient-16);
      }

      .cls-11 {
        fill: url(#radial-gradient-13);
      }

      .cls-12 {
        fill: url(#radial-gradient-14);
      }

      .cls-13 {
        fill: url(#radial-gradient-47);
      }

      .cls-14 {
        fill: url(#radial-gradient-48);
      }

      .cls-15 {
        fill: url(#radial-gradient-32);
      }

      .cls-16 {
        fill: url(#radial-gradient-33);
      }

      .cls-17 {
        fill: url(#radial-gradient-38);
      }

      .cls-18 {
        fill: url(#radial-gradient-39);
      }

      .cls-19 {
        fill: url(#radial-gradient-36);
      }

      .cls-20 {
        fill: url(#radial-gradient-37);
      }

      .cls-21 {
        fill: url(#radial-gradient-30);
      }

      .cls-22 {
        fill: url(#radial-gradient-31);
      }

      .cls-23 {
        fill: url(#radial-gradient-22);
      }

      .cls-24 {
        fill: url(#radial-gradient-24);
      }

      .cls-25 {
        fill: url(#radial-gradient-20);
      }

      .cls-26 {
        fill: url(#radial-gradient-28);
      }

      .cls-27 {
        fill: url(#radial-gradient-23);
      }

      .cls-28 {
        fill: url(#radial-gradient-21);
      }

      .cls-29 {
        fill: url(#radial-gradient-27);
      }

      .cls-30 {
        fill: url(#radial-gradient-26);
      }

      .cls-31 {
        fill: url(#radial-gradient-29);
      }

      .cls-32 {
        fill: url(#radial-gradient-25);
      }

      .cls-33 {
        fill: url(#radial-gradient-59);
      }

      .cls-34 {
        fill: url(#radial-gradient-53);
      }

      .cls-35 {
        fill: url(#radial-gradient-54);
      }

      .cls-36 {
        fill: url(#radial-gradient-50);
      }

      .cls-37 {
        fill: url(#radial-gradient-55);
      }

      .cls-38 {
        fill: url(#radial-gradient-51);
      }

      .cls-39 {
        fill: url(#radial-gradient-52);
      }

      .cls-40 {
        fill: url(#radial-gradient-34);
      }

      .cls-41 {
        fill: url(#radial-gradient-35);
      }

      .cls-42 {
        fill: url(#radial-gradient-49);
      }

      .cls-43 {
        fill: url(#radial-gradient-44);
      }

      .cls-44 {
        fill: url(#radial-gradient-43);
      }

      .cls-45 {
        fill: url(#radial-gradient-57);
      }

      .cls-46 {
        fill: url(#radial-gradient-46);
      }

      .cls-47 {
        fill: url(#radial-gradient-45);
      }

      .cls-48 {
        fill: url(#radial-gradient-41);
      }

      .cls-49 {
        fill: url(#radial-gradient-40);
      }

      .cls-50 {
        fill: url(#radial-gradient-42);
      }

      .cls-51 {
        fill: url(#radial-gradient-58);
      }

      .cls-52 {
        fill: url(#radial-gradient-56);
      }

      .cls-53 {
        fill: url(#radial-gradient-61);
      }

      .cls-54 {
        fill: url(#radial-gradient-66);
      }

      .cls-55 {
        fill: url(#radial-gradient-60);
      }

      .cls-56 {
        fill: url(#radial-gradient-68);
      }

      .cls-57 {
        fill: url(#radial-gradient-69);
      }

      .cls-58 {
        fill: url(#radial-gradient-62);
      }

      .cls-59 {
        fill: url(#radial-gradient-64);
      }

      .cls-60 {
        fill: url(#radial-gradient-65);
      }

      .cls-61 {
        fill: url(#radial-gradient-63);
      }

      .cls-62 {
        fill: url(#radial-gradient-67);
      }

      .cls-69 {
        fill: url(#radial-gradient-72);
      }

      .cls-69, .cls-72, .cls-73, .cls-70 {
        mix-blend-mode: screen;
      }

      .cls-74 {
        isolation: isolate;
      }

      .cls-72 {
        fill: url(#radial-gradient);
      }

      .cls-63 {
        fill: url(#radial-gradient-8);
      }

      .cls-64 {
        fill: url(#radial-gradient-9);
      }

      .cls-65 {
        fill: url(#radial-gradient-7);
      }

      .cls-66 {
        fill: url(#radial-gradient-5);
      }

      .cls-67 {
        fill: url(#radial-gradient-6);
      }

      .cls-68 {
        fill: url(#radial-gradient-4);
      }

      .cls-70 {
        fill: url(#radial-gradient-2);
      }
    </style>
    <radialGradient id="radial-gradient" cx="577.2" cy="268.1" fx="577.2" fy="268.1" r="603.1" gradientTransform="translate(124.4 63.1) rotate(25.3)" gradientUnits="userSpaceOnUse">
      <stop offset="0" stop-color="#fba700"/>
      <stop offset=".9" stop-color="#fba700" stop-opacity="0"/>
    </radialGradient>
    <radialGradient id="radial-gradient-2" cx="556.4" cy="245.6" fx="556.4" fy="245.6" r="680.7" gradientTransform="translate(124.4 63.1) rotate(25.3)" xlink:href="#radial-gradient"/>
    <radialGradient id="radial-gradient-3" cx="516.3" cy="24.3" fx="516.3" fy="24.3" r="889.5" gradientTransform="translate(124.4 63.1) rotate(25.3)" gradientUnits="userSpaceOnUse">
      <stop offset="0" stop-color="#fba700"/>
      <stop offset="1" stop-color="#ff2e00"/>
    </radialGradient>
    <radialGradient id="radial-gradient-4" cx="499.9" cy="-78.9" fx="499.9" fy="-78.9" r="820.2" gradientTransform="translate(-87.3 487.6) rotate(-19.7)" xlink:href="#radial-gradient-3"/>
    <radialGradient id="radial-gradient-5" cx="610.1" cy="458.2" fx="610.1" fy="458.2" r="40.3" gradientTransform="translate(-87.3 487.6) rotate(-19.7)" xlink:href="#radial-gradient-3"/>
    <radialGradient id="radial-gradient-6" cx="380.6" cy="259.4" fx="380.6" fy="259.4" r="100.5" gradientTransform="translate(-87.3 487.6) rotate(-19.7)" xlink:href="#radial-gradient-3"/>
    <radialGradient id="radial-gradient-7" cx="454.8" cy="46.3" fx="454.8" fy="46.3" r="38.6" gradientTransform="translate(-87.3 487.6) rotate(-19.7)" xlink:href="#radial-gradient-3"/>
    <radialGradient id="radial-gradient-8" cx="592.1" cy="184" fx="592.1" fy="184" r="37.5" gradientTransform="translate(-87.3 487.6) rotate(-19.7)" xlink:href="#radial-gradient-3"/>
    <radialGradient id="radial-gradient-9" cx="565.7" cy="261.8" fx="565.7" fy="261.8" r="176.8" gradientTransform="translate(-87.3 487.6) rotate(-19.7)" xlink:href="#radial-gradient-3"/>
    <radialGradient id="radial-gradient-10" cx="359.1" cy="185.8" fx="359.1" fy="185.8" r="48.6" gradientTransform="translate(-87.3 487.6) rotate(-19.7)" xlink:href="#radial-gradient-3"/>
    <radialGradient id="radial-gradient-11" cx="487.2" cy="480.5" fx="487.2" fy="480.5" r="36.8" gradientTransform="translate(-87.3 487.6) rotate(-19.7)" xlink:href="#radial-gradient-3"/>
    <radialGradient id="radial-gradient-12" cx="465" cy="100.2" fx="465" fy="100.2" r="135.4" gradientTransform="translate(-87.3 487.6) rotate(-19.7)" xlink:href="#radial-gradient-3"/>
    <radialGradient id="radial-gradient-13" cx="460.2" cy="406.6" fx="460.2" fy="406.6" r="33.5" gradientTransform="translate(-87.3 487.6) rotate(-19.7)" xlink:href="#radial-gradient-3"/>
    <radialGradient id="radial-gradient-14" cx="840.6" cy="235.9" fx="840.6" fy="235.9" r="95.2" gradientTransform="translate(-87.3 487.6) rotate(-19.7)" xlink:href="#radial-gradient-3"/>
    <radialGradient id="radial-gradient-15" cx="791.7" cy="518" fx="791.7" fy="518" r=".6" gradientTransform="translate(-87.3 487.6) rotate(-19.7)" xlink:href="#radial-gradient-3"/>
    <radialGradient id="radial-gradient-16" cx="888.3" cy="256.2" fx="888.3" fy="256.2" r="0" gradientTransform="translate(-87.3 487.6) rotate(-19.7)" xlink:href="#radial-gradient-3"/>
    <radialGradient id="radial-gradient-17" cx="355.9" cy="387" fx="355.9" fy="387" r="28.3" gradientTransform="translate(-87.3 487.6) rotate(-19.7)" xlink:href="#radial-gradient-3"/>
    <radialGradient id="radial-gradient-18" cx="295.9" cy="130.8" fx="295.9" fy="130.8" r="57.4" gradientTransform="translate(-87.3 487.6) rotate(-19.7)" xlink:href="#radial-gradient-3"/>
    <radialGradient id="radial-gradient-19" cx="831.1" cy="3.1" fx="831.1" fy="3.1" r="133.2" gradientTransform="translate(-87.3 487.6) rotate(-19.7)" xlink:href="#radial-gradient-3"/>
    <radialGradient id="radial-gradient-20" cx="923.4" cy="192.7" fx="923.4" fy="192.7" r="36" gradientTransform="translate(-87.3 487.6) rotate(-19.7)" xlink:href="#radial-gradient-3"/>
    <radialGradient id="radial-gradient-21" cx="758.5" cy="356" fx="758.5" fy="356" r="61.9" gradientTransform="translate(-87.3 487.6) rotate(-19.7)" xlink:href="#radial-gradient-3"/>
    <radialGradient id="radial-gradient-22" cx="368.7" cy="426.2" fx="368.7" fy="426.2" r="125.1" gradientTransform="translate(-87.3 487.6) rotate(-19.7)" xlink:href="#radial-gradient-3"/>
    <radialGradient id="radial-gradient-23" cx="467.1" cy="566.5" fx="467.1" fy="566.5" r="72.6" gradientTransform="translate(-87.3 487.6) rotate(-19.7)" xlink:href="#radial-gradient-3"/>
    <radialGradient id="radial-gradient-24" cx="223.9" cy="284.2" fx="223.9" fy="284.2" r="169.2" gradientTransform="translate(-87.3 487.6) rotate(-19.7)" xlink:href="#radial-gradient-3"/>
    <radialGradient id="radial-gradient-25" cx="201.4" cy="128.5" fx="201.4" fy="128.5" r="108.9" gradientTransform="translate(-87.3 487.6) rotate(-19.7)" xlink:href="#radial-gradient-3"/>
    <radialGradient id="radial-gradient-26" cx="553.1" cy="507.9" fx="553.1" fy="507.9" r="59.7" gradientTransform="translate(-87.3 487.6) rotate(-19.7)" xlink:href="#radial-gradient-3"/>
    <radialGradient id="radial-gradient-27" cx="882.4" cy="364.3" fx="882.4" fy="364.3" r="133.1" gradientTransform="translate(-87.3 487.6) rotate(-19.7)" xlink:href="#radial-gradient-3"/>
    <radialGradient id="radial-gradient-28" cx="725.2" cy="465.8" fx="725.2" fy="465.8" r="135.6" gradientTransform="translate(-87.3 487.6) rotate(-19.7)" xlink:href="#radial-gradient-3"/>
    <radialGradient id="radial-gradient-29" cx="613.5" cy="596.4" fx="613.5" fy="596.4" r="53.9" gradientTransform="translate(-87.3 487.6) rotate(-19.7)" xlink:href="#radial-gradient-3"/>
    <radialGradient id="radial-gradient-30" cx="313.8" cy="-25.6" fx="313.8" fy="-25.6" r="120.1" gradientTransform="translate(-87.3 487.6) rotate(-19.7)" xlink:href="#radial-gradient-3"/>
    <radialGradient id="radial-gradient-31" cx="234.7" cy="134.1" fx="234.7" fy="134.1" r="8.5" gradientTransform="translate(-87.3 487.6) rotate(-19.7)" xlink:href="#radial-gradient-3"/>
    <radialGradient id="radial-gradient-32" cx="699.5" cy="-63.1" fx="699.5" fy="-63.1" r="114.8" gradientTransform="translate(-87.3 487.6) rotate(-19.7)" xlink:href="#radial-gradient-3"/>
    <radialGradient id="radial-gradient-33" cx="605.3" cy="61.8" fx="605.3" fy="61.8" r="89.7" gradientTransform="translate(-87.3 487.6) rotate(-19.7)" xlink:href="#radial-gradient-3"/>
    <radialGradient id="radial-gradient-34" cx="752.7" cy="88.6" fx="752.7" fy="88.6" r="34.2" gradientTransform="translate(-87.3 487.6) rotate(-19.7)" xlink:href="#radial-gradient-3"/>
    <radialGradient id="radial-gradient-35" cx="732.7" cy="289.2" fx="732.7" fy="289.2" r="30.7" gradientTransform="translate(-87.3 487.6) rotate(-19.7)" xlink:href="#radial-gradient-3"/>
    <radialGradient id="radial-gradient-36" cx="478.3" cy="-132.1" fx="478.3" fy="-132.1" r="172.5" gradientTransform="translate(-87.3 487.6) rotate(-19.7)" xlink:href="#radial-gradient-3"/>
    <radialGradient id="radial-gradient-37" cx="231.6" cy="132.8" fx="231.6" fy="132.8" r=".6" gradientTransform="translate(-87.3 487.6) rotate(-19.7)" xlink:href="#radial-gradient-3"/>
    <radialGradient id="radial-gradient-38" cx="705.7" cy="154.7" fx="705.7" fy="154.7" r="109.9" gradientTransform="translate(-87.3 487.6) rotate(-19.7)" xlink:href="#radial-gradient-3"/>
    <radialGradient id="radial-gradient-39" cx="389.3" cy="302" fx="389.3" fy="302" r="87.6" gradientTransform="translate(-87.3 487.6) rotate(-19.7)" xlink:href="#radial-gradient-3"/>
    <radialGradient id="radial-gradient-40" cx="359.6" cy="192.1" fx="359.6" fy="192.1" r="45.3" gradientTransform="translate(-87.3 487.6) rotate(-19.7)" xlink:href="#radial-gradient-3"/>
    <radialGradient id="radial-gradient-41" cx="355.8" cy="386.6" fx="355.8" fy="386.6" r="21.9" gradientTransform="translate(-87.3 487.6) rotate(-19.7)" xlink:href="#radial-gradient-3"/>
    <radialGradient id="radial-gradient-42" cx="487.2" cy="482.6" fx="487.2" fy="482.6" r="35.2" gradientTransform="translate(-87.3 487.6) rotate(-19.7)" xlink:href="#radial-gradient-3"/>
    <radialGradient id="radial-gradient-43" cx="296.9" cy="141.9" fx="296.9" fy="141.9" r="55.3" gradientTransform="translate(-87.3 487.6) rotate(-19.7)" xlink:href="#radial-gradient-3"/>
    <radialGradient id="radial-gradient-44" cx="469.7" cy="130.7" fx="469.7" fy="130.7" r="127.2" gradientTransform="translate(-87.3 487.6) rotate(-19.7)" xlink:href="#radial-gradient-3"/>
    <radialGradient id="radial-gradient-45" cx="460.2" cy="408.1" fx="460.2" fy="408.1" r="32.5" gradientTransform="translate(-87.3 487.6) rotate(-19.7)" xlink:href="#radial-gradient-3"/>
    <radialGradient id="radial-gradient-46" cx="592.2" cy="186.3" fx="592.2" fy="186.3" r="35.9" gradientTransform="translate(-87.3 487.6) rotate(-19.7)" xlink:href="#radial-gradient-3"/>
    <radialGradient id="radial-gradient-47" cx="859.9" cy="96.1" fx="859.9" fy="96.1" r="101.5" gradientTransform="translate(-87.3 487.6) rotate(-19.7)" xlink:href="#radial-gradient-3"/>
    <radialGradient id="radial-gradient-48" cx="770" cy="480.4" fx="770" fy="480.4" r=".6" gradientTransform="translate(-87.3 487.6) rotate(-19.7)" xlink:href="#radial-gradient-3"/>
    <radialGradient id="radial-gradient-49" cx="923.4" cy="194.7" fx="923.4" fy="194.7" r="34.6" gradientTransform="translate(-87.3 487.6) rotate(-19.7)" xlink:href="#radial-gradient-3"/>
    <radialGradient id="radial-gradient-50" cx="319.1" cy="8.4" fx="319.1" fy="8.4" r="106.1" gradientTransform="translate(-87.3 487.6) rotate(-19.7)" xlink:href="#radial-gradient-3"/>
    <radialGradient id="radial-gradient-51" cx="709" cy="177.8" fx="709" fy="177.8" r="99.3" gradientTransform="translate(-87.3 487.6) rotate(-19.7)" xlink:href="#radial-gradient-3"/>
    <radialGradient id="radial-gradient-52" cx="454.9" cy="48.7" fx="454.9" fy="48.7" r="31.8" gradientTransform="translate(-87.3 487.6) rotate(-19.7)" xlink:href="#radial-gradient-3"/>
    <radialGradient id="radial-gradient-53" cx="608.2" cy="86.1" fx="608.2" fy="86.1" r="79.5" gradientTransform="translate(-87.3 487.6) rotate(-19.7)" xlink:href="#radial-gradient-3"/>
    <radialGradient id="radial-gradient-54" cx="485.3" cy="-98.5" fx="485.3" fy="-98.5" r="180.8" gradientTransform="translate(-87.3 487.6) rotate(-19.7)" xlink:href="#radial-gradient-3"/>
    <radialGradient id="radial-gradient-55" cx="614.5" cy="606.1" fx="614.5" fy="606.1" r="47.5" gradientTransform="translate(-87.3 487.6) rotate(-19.7)" xlink:href="#radial-gradient-3"/>
    <radialGradient id="radial-gradient-56" cx="572.4" cy="316" fx="572.4" fy="316" r="152.3" gradientTransform="translate(-87.3 487.6) rotate(-19.7)" xlink:href="#radial-gradient-3"/>
    <radialGradient id="radial-gradient-57" cx="610.1" cy="461.2" fx="610.1" fy="461.2" r="38.4" gradientTransform="translate(-87.3 487.6) rotate(-19.7)" xlink:href="#radial-gradient-3"/>
    <radialGradient id="radial-gradient-58" cx="729.9" cy="503.5" fx="729.9" fy="503.5" r="124.1" gradientTransform="translate(-87.3 487.6) rotate(-19.7)" xlink:href="#radial-gradient-3"/>
    <radialGradient id="radial-gradient-59" cx="882.9" cy="365.7" fx="882.9" fy="365.7" r="138.9" gradientTransform="translate(-87.3 487.6) rotate(-19.7)" xlink:href="#radial-gradient-3"/>
    <radialGradient id="radial-gradient-60" cx="845.1" cy="266.7" fx="845.1" fy="266.7" r="81.2" gradientTransform="translate(-87.3 487.6) rotate(-19.7)" xlink:href="#radial-gradient-3"/>
    <radialGradient id="radial-gradient-61" cx="554.1" cy="517.9" fx="554.1" fy="517.9" r="55.3" gradientTransform="translate(-87.3 487.6) rotate(-19.7)" xlink:href="#radial-gradient-3"/>
    <radialGradient id="radial-gradient-62" cx="469.4" cy="585.7" fx="469.4" fy="585.7" r="71.5" gradientTransform="translate(-87.3 487.6) rotate(-19.7)" xlink:href="#radial-gradient-3"/>
    <radialGradient id="radial-gradient-63" cx="732.7" cy="290" fx="732.7" fy="290" r="30.1" gradientTransform="translate(-87.3 487.6) rotate(-19.7)" xlink:href="#radial-gradient-3"/>
    <radialGradient id="radial-gradient-64" cx="759.7" cy="366.6" fx="759.7" fy="366.6" r="57.1" gradientTransform="translate(-87.3 487.6) rotate(-19.7)" xlink:href="#radial-gradient-3"/>
    <radialGradient id="radial-gradient-65" cx="704.3" cy="-33.1" fx="704.3" fy="-33.1" r="100.7" gradientTransform="translate(-87.3 487.6) rotate(-19.7)" xlink:href="#radial-gradient-3"/>
    <radialGradient id="radial-gradient-66" cx="752.7" cy="90.4" fx="752.7" fy="90.4" r="32.9" gradientTransform="translate(-87.3 487.6) rotate(-19.7)" xlink:href="#radial-gradient-3"/>
    <radialGradient id="radial-gradient-67" cx="372.9" cy="455.3" fx="372.9" fy="455.3" r="115.7" gradientTransform="translate(-87.3 487.6) rotate(-19.7)" xlink:href="#radial-gradient-3"/>
    <radialGradient id="radial-gradient-68" cx="205.4" cy="152.4" fx="205.4" fy="152.4" r="89.8" gradientTransform="translate(-87.3 487.6) rotate(-19.7)" xlink:href="#radial-gradient-3"/>
    <radialGradient id="radial-gradient-69" cx="239.4" cy="319.8" fx="239.4" fy="319.8" r="138.9" gradientTransform="translate(-87.3 487.6) rotate(-19.7)" xlink:href="#radial-gradient-3"/>
    <radialGradient id="radial-gradient-70" cx="516.3" cy="101.4" fx="516.3" fy="101.4" r="818.1" gradientTransform="translate(-87.3 487.6) rotate(-19.7)" xlink:href="#radial-gradient-3"/>
    <radialGradient id="radial-gradient-71" cx="349" cy="93.4" fx="349" fy="93.4" r="818" gradientTransform="translate(222.1 178.8) rotate(17.1)" xlink:href="#radial-gradient-3"/>
    <radialGradient id="radial-gradient-72" cx="612" cy="-26.4" fx="612" fy="-26.4" r="307.9" gradientTransform="translate(-87.3 487.6) rotate(-19.7)" gradientUnits="userSpaceOnUse">
      <stop offset="0" stop-color="#fba700"/>
      <stop offset=".9" stop-color="#fba700" stop-opacity="0"/>
    </radialGradient>
  </defs>
  <!-- Generator: Adobe Illustrator 28.6.0, SVG Export Plug-In . SVG Version: 1.2.0 Build 709)  -->
  <g class="cls-74">
    <g id="Layer_1">
      <g>
        <circle class="cls-72" cx="530.9" cy="531" r="530.9" transform="translate(-220 531) rotate(-45)"/>
        <circle class="cls-70" cx="530.9" cy="531" r="423.2" transform="translate(-220 531) rotate(-45)"/>
        <circle class="cls-71" cx="530.9" cy="531" r="393.2" transform="translate(-220 531) rotate(-45)"/>
        <path class="cls-68" d="M658.3,709.6c7.8,3.3,11.9,12.6,10.5,20.6,0,.4-.1.8-.2,1.2-2.1,12.3-16.1,19.1-27.2,13.9-11.1-5.2-14.7-20.4-6.5-29.8.3-.3.5-.6.8-.9,5.7-6.6,14.7-8.3,22.6-4.9ZM350.9,454.9c-10.7,32.9,3.1,73.3,36.3,87.9,20.1,8.8,41.5,9.1,61.2-1.1,13.9-7.2,24.8-18,31.2-32.7,3.4-7.8,5.3-15.6,6.2-23.8.2-2,.5-3.9.8-5.9.6-3.8.6-3.6.9-9.9.5-9.2-1.4-16.6-3.3-25.6-3.8-10.6-10-19.5-18.6-26.7-8.4-6.9-17.9-11.4-28.5-13.5-15-2.8-28.8.2-40.9,7-7.3,2-14.3,5.3-20.4,9.3-12.9,8.5-20.3,20.7-24.9,34.9ZM251.4,503.7c-2.4.4-4.8,1-7.1,1.5-.3,0-.8,0-1.7.2-1.3.2-2.7.2-4,.4-5,.7-8.7,2.4-13.2,4.9-4.6,2.5-8.8,9.8-9.5,14.8-.9,6.3.2,12.4,3.9,17.8,6,8.9,18.5,13.9,28.6,16.3,12.3,2.9,25.4-4.8,30.8-15.7,1.7-3.5,2.6-7.1,2.8-10.9.2-3.2-.2-6.4-1.2-9.5-.7-2.1-6.6-13.3-.6-1.2-2.9-5.8-5.8-10.5-11.5-14.1-4.8-3.1-11.4-5.6-17.2-4.6ZM421.6,879c9.9,1.8,22.5.9,32-2.8,29.5-11.3,49.1-41.3,45.7-73.1-3-27.5-22-51.5-50.1-56.5-11.4-2-23.5-.8-34.2,3.3-5.2,2-11.1,5.1-15.6,8.5-8.7,6.4-13.9,14.2-19.5,23.5-4.1,6.8-5.8,17-5.4,26.5-1.7,8.2-1.7,16.3.2,24.8,3.7,17.1,14.1,33.2,30.6,40.6,5.1,2.3,10.9,4.2,16.4,5.2ZM316.1,536.4c-11.8,4.2-19.3,18.6-14.4,30.6,4.9,12,17.9,19,30.6,14.4,11.8-4.2,19.3-18.6,14.4-30.6-4.9-12-17.9-19-30.6-14.4ZM388.6,754.8c16.5-5.9,7.3-31.6-9.2-25.7-16.5,5.9-7.4,31.6,9.2,25.7ZM344.5,606.7c-14.7,19.1-15.9,51.8,5.9,67.2,6,4.3,12.3,8.3,18.6,12.2,6.6,4.1,14.1,6.1,21.6,8.1,14,3.7,31.3,2,43.8-6.3,7.9-3.9,14.2-10.5,17.2-19.8,2-6.3,1.9-11.7.6-18-.5-2.3-1.2-4.4-2-6.3-4.7-17.5-19.2-30.3-35-40.6,1.6,1,3.3,2.1,4.9,3.1-2.8-1.8-5.6-3.7-8.3-5.6-10.3-7.3-21.3-12-34.2-11-11.8.9-25.6,7.4-33,16.9ZM298.6,685.5c-20.2-25.4-53-35-82.5-19.7-9.4,4.9-17.8,12.6-24,21.7-.7.7-1.4,1.2-2.1,2-4.6,5.4-8,11.3-10.6,17.4,24.3,48.8,57.9,90.7,97.7,124.3,26.8-6.1,48.9-26.9,53.7-56.6,4.7-29.8-14.1-66.3-32.2-89.1ZM490,742.7c.4,0,.9,0,1.3,0,10.4-.4,17.2-11.8,13.8-21.2-3.4-9.4-15.8-13.9-24.1-7.6-.3.3-.7.5-1,.8-12.3,9.3-5.3,28.8,10.1,28.1ZM877,523.8c-14,9.7-23.4,23-26.2,42-.2,1.6-.4,3.3-.6,4.9,0,.1-.1.2-.2.4-14.8,26.9-1.6,62.3,22.8,77.8,8.7,5.6,19.3,8.8,30.1,9.5,16.6-48.3,23.9-99.9,20.5-152.2-17.5-2.5-33.1,5.7-46.4,17.5ZM292.3,328.5c18.4,13.4,42.1,21.4,62.4,24.1,32.9,4.4,66.5-1.3,89.7-27.3,13.9-15.6,21.6-35.4,23.8-56.1,2.3-20.8,3.6-40.6-3.3-60.7-9.1-26.4-31.9-43.1-57.4-50.8-3.1,1-6.2,2-9.3,3.1-58.1,20.8-108.3,53.9-148.7,95.3-.2,29.4,14.6,59.4,42.6,72.4ZM851,444c-.6-.6-1.1-1.2-1.7-1.8,7.9,9.8,11.9,21.7,9.5,34.9-2.8,15.1-13.4,26.7-27.5,32.3-15,5.9-31.7,4.4-45.2-4.2-10.5-6.7-18.6-16.2-22.3-28.3-3.9-12.5-4.8-26.2,1.3-38.2,3.7-7.2,9.1-13.7,15.7-18.3,10.9-7.6,26.5-7.8,37.6-.4.5.2,1,.4,1.5.6,1.4.7,2.7,1.5,3.9,2.2,1.9.9,3.8,1.6,5.7,2.6,8.3,4.2,14,8.6,19.6,16,.7.9,1.3,1.8,2,2.7ZM816.4,419.1h0s0,0,0,0ZM642.4,548.4c-13.1-11.7-32.5-19-48.9-24.3-32.9-10.7-66.3.4-85,29.7-2.6,4.1-4.6,8.4-6.3,12.8-3.5,6.6-5.5,14-5.3,21.6-1.3,9.6-1.5,19.5-1.5,29.4,0,20.5,3.3,44,15.2,60.9,34.3,48.8,93.8,28.9,134.6,2.5,25.8-16.7,35.1-54.8,21.8-82.3-1-18.2-8.3-35.8-24.4-50.2ZM699.6,311.3c22.5,30.7,59.8,31.1,93.9,27.1,25.9-3.1,45.5-19.5,54.2-40.4-33.6-45.7-76.2-82.8-124.4-109.8-2.1,1.8-4.1,3.6-5.8,5.7-6.4,2.7-12.1,6.8-16.4,12.8-21.1,29.3-23.4,74.6-1.5,104.6ZM848.5,354c-21.1,7.6-9.4,40.4,11.7,32.8,21.1-7.6,9.4-40.4-11.7-32.8ZM378.5,403.4c.2-.3.5-.6.7-.9,8.5-10.4,2.8-26.4-10.4-29-.4,0-.8-.2-1.1-.2-13.9-2.8-25.6,11.4-20.9,24.5,4.7,13.1,22.7,16.6,31.7,5.7ZM606.3,916.9c4.7-10,5.9-24,1.7-34.4-4.4-10.8-12.1-20.8-23.1-25.5-11-4.6-22.9-5.8-34.4-1.7-10.9,3.9-20.6,12.7-25.5,23.1-4.7,10-5.9,24-1.7,34.4,1.6,4,3.9,7.8,6.5,11.4,25.4,0,51-2.3,76.5-7.3,0,0,0,0,0,0ZM176.5,642.8c26-10.7,40.1-38.2,30.9-65.4-2.8-8.2-4.1-14.2-9.3-22.3-5.8-8.8-13.3-14.6-22.2-20.2-12.1-6.3-25.7-7.2-38.2-1.5.2,37.2,5.7,75,17.1,112.2,7.3.8,14.7,0,21.7-2.9ZM182.7,539.1c-2.2-1.6-4.4-2.9-6.7-4.1,3.1,2,6.1,3.9,9.2,5.9-.9-.6-1.7-1.1-2.5-1.8ZM175.3,534.5c.2.1.4.3.6.4,0,0,0,0,0,0-.2-.1-.5-.3-.7-.4ZM170.8,403.3c.6,5,1.8,10.2,3.5,15.2,1.7,9.2,4.5,18.2,10,25.9,8.7,12.4,22.6,21.2,37.5,23.6,32.1,5.4,63.6-16.9,69.9-48.7,4.8-24.6-6.8-50.1-27.1-64.2-5.6-5.1-12.1-8.4-19.3-10.1-4-1.7-8.2-2.7-12.4-3.1-16.3-2.6-33.6,2.8-45.8,16.6-.4.4-.7.9-1.1,1.4-.7.8-1.4,1.5-2,2.3-8.8,11.5-15,26.2-13.2,41ZM861.8,743.4c-10.9,17-23.1,33.3-36.6,48.5-11.2,6.7-24.4,11.1-37.1,11.7-22.7,1.1-44.2-7.2-59.6-23.9-16.1-17.6-20.1-39.6-14.7-61.3-.1.4-.2.7-.3,1.1.1-.4.3-.8.4-1.2,1-4,2.2-8,3.9-11.9-.3,1-.6,1.9-.9,2.9,2.8-7.9,6.2-15,12.1-22.1,12.5-14.9,30.9-21.5,50-18.5.5-.1.9-.2,1.4-.3,8.3-2.8,17.6-3.7,25.5-3.2,11,.6,20.3,3.6,29.5,9.5,11.4,7.3,20.4,17.7,25,30.6,3.7,10.3,3.7,21.3,2.6,32-.2,2-.6,4-1.1,6.1ZM814,698.9c-.1-.2-.2-.4-.3-.6h0c0,.2.2.4.3.6ZM733,854.3c-6.1-14.8-22.2-23.4-37.8-17.8-14.5,5.2-23.9,23-17.8,37.8,2.8,6.9,7.8,12.3,13.9,15.7,15-6.7,29.4-14.1,43.2-22.4.6-4.4.2-8.9-1.5-13.2ZM648.7,798.5c-.3-5.4-2.2-10.5-5.3-14.9-9.3-12.8-28.3-16.8-41.5-7.2-.4.3-.8.6-1.3.9-10,7.3-15.6,21.9-10.7,33.8,5,12.1,16.4,20.1,29.8,19.3.5,0,1,0,1.6,0,16.2-.9,28.4-16.1,27.4-31.9ZM660.5,495.7c17.6-1.3,30.4-11.8,38.8-26.7,13.7-24.3,8.8-59.9-13.4-77.7-19.3-15.5-52.8-15.7-68.5,6-9.7,13.5-13.9,27.1-12.5,43.8,1.1,12.9,5.4,24.8,13.7,34.8,10.7,12.9,24.5,21,41.8,19.7ZM647,317.2c-4.6,4.2-6.9,11.5-4.4,17.5,5.5,13.4,23.4,14.2,30.3,1.5.2-.3.3-.6.5-.8,3.8-7.1,0-17.6-7.4-20.7-.3-.1-.6-.2-.9-.4-6.2-2.5-13-1.8-18,2.9ZM542.1,335.9c-1.1-.5-2.2-.9-3.3-1.6-3.4-1.1-6.9-2.2-10.3-3.3-5.6-1.3-11.1-1.1-16.5.6-8.9,1.9-18,6.4-23.8,13.9-4.4,5.8-7.5,12.3-9.2,19.5-2.5,10.7,1.1,23.3,7,32.2,7.9,11.8,21.4,22.2,35.8,23.8,11.3,1.3,23.8,0,33.2-7.2,7.7-5.9,13.1-13.2,16.1-22.4,6.8-20.9-3-42.9-22.6-52.9-2-1-4.2-1.8-6.4-2.5ZM582.3,177.9c-16.6-4.3-35.7,3.9-46.4,16.6-.2.2-.4.4-.6.7-12,14.4-13.2,32.6-6.8,48.9,0,6.2,1.2,12.5,2.6,18.1.5,2,1.2,3.9,2.1,5.9,1.1,2.4,2.2,4.6,3.4,6.7.2.3.3.6.5.9h0c6.1,11.7,18.8,20.3,31.5,22.5,9.1,1.6,18.6.6,27.4-2.1,18.9-5.7,32.6-25,36.6-43.6,3.5-16,0-34.2-9.5-47.6-10.3-14.6-24-22.7-41-27ZM546.9,805.5c21.6-7.7,9.6-41.2-12-33.5-21.6,7.7-9.6,41.2,12,33.5ZM711.2,537.5c17.9-6.4,8-34.2-10-27.8-17.9,6.4-8,34.2,10,27.8ZM766.7,621c16.1-2,26.9-15.7,24.9-31.2-.4-2.9,0-4.2-1.6-9-1.5-4.5-3.7-7.5-6.4-10.5.5.6,1,1.1,1.5,1.7-1.8-2.4-4.1-5-6.4-6.9-14.9-12-35.8-6.8-44.5,9.8-5.5,10.4-3.8,24,3,33.3,6.6,9.1,18.3,14.2,29.5,12.8ZM546,491.6c22-7.9,9.8-42.1-12.3-34.2-22,7.9-9.8,42.1,12.3,34.2Z"/>
        <g class="cls-73">
          <path class="cls-66" d="M653.8,725.5c.3-.3.5-.6.8-.9,3.3-3.8,7.7-5.9,12.4-6.4-1.8-3.8-4.8-6.9-8.7-8.6-7.9-3.3-16.9-1.6-22.6,4.9-.3.3-.5.6-.8.9-8.2,9.4-4.5,24.6,6.5,29.8,3.3,1.6,6.8,1.9,10.2,1.5-3.5-6.7-3.2-15.2,2.1-21.3Z"/>
          <path class="cls-67" d="M369,686.1c3.4,2.1,7.1,3.7,10.9,5-3.6-2.3-7.1-4.6-10.6-7.1-21.8-15.4-20.6-48.1-5.9-67.2,7.3-9.6,21.2-16,33-16.9,6.1-.5,11.7.4,17.1,2.2-.6-.4-1.2-.8-1.7-1.2-10.3-7.3-21.3-12-34.2-11-11.8.9-25.6,7.4-33,16.9-14.7,19.1-15.9,51.8,5.9,67.2,6,4.3,12.3,8.3,18.6,12.2Z"/>
          <path class="cls-65" d="M366.7,409.7c-.3-.6-.8-1.2-1-1.9-4.1-11.4,4.2-23.5,15.5-24.7-2.3-4.7-6.6-8.5-12.4-9.6-.4,0-.8-.2-1.1-.2-13.9-2.8-25.6,11.4-20.9,24.5,3.1,8.5,11.7,12.9,19.9,12Z"/>
          <path class="cls-63" d="M543.1,492.3c-4.2-8.8-2.3-20.7,9.6-24.9,1-.4,2-.5,2.9-.7-3.6-7.6-11.6-13-21.8-9.3-21,7.5-10.8,39,9.3,35Z"/>
          <path class="cls-64" d="M514.2,627.6c0-9.8.2-19.7,1.5-29.4-.2-7.6,1.8-15,5.3-21.6,1.7-4.4,3.7-8.7,6.3-12.8,18.7-29.2,52.1-40.3,85-29.7,7,2.3,14.6,5,22,8.1-12.3-8.2-27.5-13.9-40.9-18.2-32.9-10.7-66.3.4-85,29.7-2.6,4.1-4.6,8.4-6.3,12.8-3.5,6.6-5.5,14-5.3,21.6-1.3,9.6-1.5,19.5-1.5,29.4,0,20.5,3.3,44,15.2,60.9,9.7,13.8,21.4,21.9,34.1,26.2-5.5-4.2-10.6-9.5-15.3-16.1-11.9-17-15.2-40.5-15.2-60.9Z"/>
          <path class="cls-8" d="M323.9,582.7c-1.3-1.7-2.5-3.6-3.3-5.7-4.9-12,2.7-26.3,14.4-30.6,2.8-1,5.6-1.4,8.4-1.3-6.2-8.3-16.8-12.5-27.2-8.7-11.8,4.2-19.3,18.6-14.4,30.6,3.8,9.3,12.6,15.5,22.2,15.7Z"/>
          <path class="cls-5" d="M544.3,806.1c-3.9-8.6-2-20,9.5-24.1.9-.3,1.7-.5,2.6-.7-3.4-7.6-11.4-13-21.5-9.4-20.7,7.4-10.5,38.4,9.4,34.2Z"/>
          <path class="cls-9" d="M387.2,542.8c2,.9,3.9,1.6,5.9,2.3-23.6-18.2-32.5-51.9-23.3-80.1,4.6-14.2,12.1-26.5,24.9-34.9,6-4,13-7.3,20.4-9.3,12.1-6.9,25.9-9.9,40.9-7,2.6.5,5.2,1.2,7.6,2-7.9-6-16.7-10.1-26.5-12-13.2-2.5-25.4-.5-36.4,4.7-.6,1.5-1.5,2.9-2.6,4.2-.2.3-.5.6-.7.9-5.1,6.2-13,7.6-19.8,5.4-.6.4-1.2.7-1.8,1.1-12.9,8.5-20.3,20.7-24.9,34.9-10.7,32.9,3.1,73.3,36.3,87.9Z"/>
          <path class="cls-11" d="M498.8,724.6c.3-.3.7-.5,1-.8,1.6-1.2,3.4-1.9,5.3-2.4,0,0,0,0,0,0-3.4-9.4-15.8-13.9-24.1-7.7-.3.3-.7.5-1,.8-12.3,9.3-5.3,28.8,10.1,28.1.4,0,.9,0,1.3,0,.7,0,1.4-.2,2.1-.4-2.1-5.9-.7-13.1,5.4-17.7Z"/>
          <path class="cls-12" d="M783.8,448.6c3.7-7.2,9.1-13.7,15.7-18.3,10.9-7.6,26.4-7.8,37.5-.5-2.3-1.6-4.8-3.1-7.6-4.6-1.9-.9-3.8-1.7-5.7-2.6-1.2-.8-2.5-1.6-3.9-2.2-.5-.2-1-.4-1.5-.6-11.1-7.4-26.7-7.2-37.6.4-6.7,4.6-12.1,11.1-15.7,18.3-6.1,12-5.2,25.7-1.3,38.2,3.8,12.1,11.8,21.6,22.3,28.3,4.2,2.7,8.7,4.6,13.3,5.9-7.7-6.3-13.7-14.3-16.8-24.2-3.9-12.5-4.8-26.2,1.3-38.2ZM816.4,419.1h0,0s0,0,0,0Z"/>
          <path class="cls-4" d="M832.6,708.3s0,0,0,0c0,.2.2.4.3.6-.1-.2-.2-.4-.3-.6Z"/>
          <polygon class="cls-10" points="835.3 429.2 835.3 429.2 835.3 429.2 835.3 429.2"/>
          <path class="cls-6" d="M397,739.8c-1.5-7.4-8.4-13.9-17.6-10.6-16.5,5.9-7.4,31.6,9.2,25.7.5-.2.8-.4,1.3-.6-1.1-5.5.9-11.5,7.1-14.4Z"/>
          <path class="cls-3" d="M215.8,525.6c-.9,6.3.2,12.4,3.9,17.8,4.9,7.4,14.3,12,23.1,14.8-1.6-1.4-3-3-4.2-4.7-3.6-5.4-4.8-11.5-3.9-17.8.7-5.1,4.9-12.3,9.5-14.8,4.5-2.5,8.2-4.2,13.2-4.9,1.3-.2,2.6-.3,4-.4.9-.1,1.4-.2,1.7-.2,2.4-.5,4.7-1.1,7.1-1.5,1.4-.2,2.9-.3,4.3-.1-1.6-2-3.5-3.8-6-5.3-4.8-3.1-11.4-5.6-17.2-4.6-2.4.4-4.8,1-7.1,1.5-.3,0-.8,0-1.7.2-1.3.2-2.7.2-4,.4-5,.7-8.7,2.4-13.2,4.9-4.6,2.5-8.8,9.8-9.5,14.8Z"/>
          <path class="cls-7" d="M731.7,335c-4.8-3.7-9.3-8.2-13.3-13.6-21.9-30-19.5-75.3,1.5-104.6,4.3-6,10-10.2,16.4-12.8,1.5-1.8,3.2-3.5,5-5-5.9-3.8-11.9-7.3-18.1-10.8-2.1,1.8-4.1,3.6-5.8,5.7-6.4,2.7-12.1,6.8-16.4,12.8-21.1,29.3-23.4,74.6-1.5,104.6,8.8,12,19.9,19.4,32.2,23.7Z"/>
          <path class="cls-25" d="M867.4,364.1c.8-.3,1.5-.4,2.3-.6-3.3-7.6-11.1-13.1-21.1-9.5-20.3,7.3-10.2,37.9,9.5,33.4-3.7-8.4-1.7-19.3,9.4-23.3Z"/>
          <path class="cls-28" d="M734.2,574.9c-5.5,10.4-3.8,24,3,33.3,5,6.8,12.8,11.4,21.1,12.7-.8-.8-1.5-1.7-2.2-2.6-6.8-9.3-8.4-23-3-33.3,6-11.4,17.9-17.3,29.5-16-1.2-1.4-2.5-2.8-3.9-3.9-14.9-12-35.8-6.8-44.5,9.8Z"/>
          <path class="cls-23" d="M393.4,843.3c-1.8-8.5-1.9-16.6-.2-24.8-.3-9.6,1.3-19.7,5.4-26.5,5.6-9.3,10.8-17,19.5-23.5,4.5-3.3,10.5-6.5,15.6-8.5,10.8-4.2,22.8-5.4,34.2-3.3,2.6.5,5,1.2,7.4,2-7.4-6-16.3-10.3-26.3-12.1-11.1-2-22.8-.8-33.3,3.1,1.2,5.9-1,12.5-8.4,15.2-5.3,1.9-9.8.6-13-2.3-5.9,5.6-10.3,12-14.7,19.4-4.1,6.8-5.8,17-5.4,26.5-1.7,8.2-1.7,16.3.2,24.8,3.7,17.1,14.1,33.2,30.6,40.6,2.4,1.1,4.9,2,7.5,2.9-10-8.4-16.5-20.6-19.3-33.4Z"/>
          <path class="cls-27" d="M542.2,922.9c-4.3-10.4-3-24.4,1.7-34.4,4.9-10.4,14.6-19.2,25.5-23.1,8.7-3.1,17.6-3.2,26.2-1-3.2-3-6.6-5.6-10.7-7.3-11-4.6-22.9-5.8-34.4-1.7-10.9,3.9-20.6,12.7-25.5,23.1-4.7,10-5.9,24-1.7,34.4,1.6,4,3.9,7.8,6.5,11.4,4.3,0,8.6-.1,12.9-.3-.2-.4-.4-.7-.5-1.1Z"/>
          <path class="cls-24" d="M198.2,717c2.6-6.2,6-12,10.6-17.4.6-.8,1.4-1.3,2.1-2,6.3-9.1,14.6-16.8,24-21.7,16.4-8.5,33.9-9.3,49.6-3.9-19.6-14.7-45.1-18.2-68.5-6.1-9.4,4.9-17.8,12.6-24,21.7-.7.7-1.4,1.2-2.1,2-4.6,5.4-8,11.3-10.6,17.4,24.3,48.8,57.9,90.7,97.7,124.3,1.9-.4,3.8-1.1,5.6-1.7-34-31.5-62.9-69.3-84.5-112.6Z"/>
          <path class="cls-32" d="M156.6,543.5c9.1-4.2,18.8-4.8,28.1-2.4-2.8-2.2-5.7-4.2-8.8-6.2-12.1-6.3-25.7-7.2-38.2-1.5.2,37.2,5.7,75,17.1,112.2,5.2.6,10.6.3,15.7-1-9.2-33.6-13.8-67.6-14-101.2Z"/>
          <path class="cls-30" d="M608.8,821.2c-4.9-12,.7-26.5,10.7-33.8.4-.3.8-.6,1.3-.9,6.1-4.5,13.6-5.9,20.7-4.9-9.8-11-27.2-14.1-39.6-5.1-.4.3-.8.6-1.3.9-10,7.3-15.6,21.9-10.7,33.8,4.3,10.5,13.5,17.9,24.6,19.2-2.3-2.7-4.3-5.7-5.7-9.1Z"/>
          <path class="cls-29" d="M868.9,581.2c0-.1.1-.2.2-.4.2-1.6.4-3.3.6-4.9,2.7-19,12.1-32.3,26.2-42,8.4-7.5,17.8-13.5,27.9-16.3-.1-3.7-.2-7.5-.4-11.2-17.5-2.5-33.1,5.7-46.4,17.5-14,9.7-23.4,23-26.2,42-.2,1.6-.4,3.3-.6,4.9,0,.1-.1.2-.2.4-14.8,26.9-1.6,62.3,22.8,77.8,4.3,2.7,9,4.9,13.9,6.5-21.1-16.9-31.6-49.3-17.8-74.3Z"/>
          <path class="cls-26" d="M747.4,789.7c-16.1-17.6-20.1-39.6-14.7-61.3-.1.4-.2.7-.3,1.1.1-.4.3-.8.4-1.2,1-4,2.2-8,3.9-11.9-.3,1-.6,1.9-.9,2.9,2.8-7.9,6.2-15,12.1-22.1,12.5-14.9,30.9-21.5,50-18.5.5-.1.9-.2,1.4-.3,8.3-2.8,17.6-3.7,25.5-3.2,5.3.3,10.2,1.2,14.9,2.6-1.4-1.1-2.7-2.2-4.2-3.2-9.2-5.9-18.6-8.9-29.5-9.5-7.8-.4-17.2.4-25.5,3.2-.5,0-.9.2-1.4.3-19.1-3-37.5,3.6-50,18.5-5.9,7.1-9.3,14.2-12.1,22.1.3-1,.6-1.9.9-2.9-1.6,3.9-2.9,7.9-3.9,11.9-.1.4-.3.8-.4,1.2.1-.4.2-.7.3-1.1-5.5,21.7-1.5,43.8,14.7,61.3,8.3,9,18.4,15.5,29.5,19.5-3.8-2.8-7.4-5.9-10.6-9.4Z"/>
          <path class="cls-31" d="M696.3,884.3c-6.1-14.8,3.3-32.5,17.8-37.8,4.4-1.6,8.8-1.9,13.1-1.4-7.8-8.8-20-12.9-32-8.6-14.5,5.2-23.9,23-17.8,37.8,2.8,6.9,7.8,12.3,13.9,15.7,2.1-1,4.2-2.1,6.3-3-.5-.9-1-1.7-1.4-2.6Z"/>
          <path class="cls-21" d="M214.3,466.3c-4.2-3.4-8-7.3-11.1-11.7-5.5-7.8-8.3-16.7-10-25.9-1.7-5-2.9-10.3-3.5-15.2-1.8-14.8,4.4-29.5,13.2-41,.6-.8,1.3-1.5,2-2.3.4-.4.7-.9,1.1-1.4,12.2-13.8,29.5-19.3,45.8-16.6,4.3.4,8.4,1.4,12.4,3.1.2,0,.3,0,.5.1,0,0,0,0,0,0-5.6-5.1-12.1-8.4-19.3-10.1-4-1.7-8.2-2.7-12.4-3.1-16.3-2.6-33.6,2.8-45.8,16.6-.4.4-.7.9-1.1,1.4-.7.8-1.4,1.5-2,2.3-8.8,11.5-15,26.2-13.2,41,.6,5,1.8,10.2,3.5,15.2,1.7,9.2,4.5,18.2,10,25.9,7.2,10.3,18,18,30,21.8Z"/>
          <path class="cls-22" d="M182.7,539.1c-2.2-1.6-4.4-2.9-6.7-4.1,3.1,2,6.1,3.9,9.2,5.9-.9-.6-1.7-1.1-2.5-1.8Z"/>
          <path class="cls-15" d="M536.8,274.7c.2.3.3.6.5.9h0c5.6,10.7,16.6,18.7,28.2,21.7-3.8-3.3-7-7.3-9.3-11.7h0c-.2-.3-.4-.6-.5-.9-1.2-2.1-2.4-4.3-3.4-6.7-.9-1.9-1.6-3.8-2.1-5.9-1.5-5.6-2.7-11.9-2.6-18.1-6.4-16.3-5.2-34.5,6.8-48.9.2-.2.4-.4.6-.7,10.6-12.7,29.8-20.9,46.4-16.6,2.8.7,5.5,1.6,8.1,2.6-7.8-5.9-16.8-10-27-12.6-16.6-4.3-35.7,3.9-46.4,16.6-.2.2-.4.4-.6.7-12,14.4-13.2,32.6-6.8,48.9,0,6.2,1.2,12.5,2.6,18.1.5,2,1.2,3.9,2.1,5.9,1.1,2.4,2.2,4.6,3.4,6.7Z"/>
          <path class="cls-16" d="M488.2,345.4c-4.4,5.8-7.5,12.3-9.2,19.5-2.5,10.7,1.1,23.3,7,32.2,6.9,10.3,18.1,19.6,30.5,22.8-4.5-3.8-8.5-8.1-11.6-12.8-5.9-8.9-9.5-21.5-7-32.2,1.7-7.1,4.8-13.7,9.2-19.5,5.7-7.5,14.8-11.9,23.8-13.9,5.4-1.7,10.9-1.9,16.5-.6,3.2,1.1,6.5,2.1,9.7,3.2-2.6-2.2-5.4-4.2-8.6-5.8-2-1-4.2-1.8-6.4-2.5-1.1-.5-2.2-.9-3.3-1.6-3.4-1.1-6.9-2.2-10.3-3.3-5.6-1.3-11.1-1.1-16.5.6-8.9,1.9-18,6.4-23.8,13.9Z"/>
          <path class="cls-40" d="M665,314.4c-6.2-2.5-13-1.8-18,2.9-4.6,4.2-6.9,11.5-4.4,17.5,3.4,8.3,11.6,11.7,18.9,10.2,0,0,0,0,0-.1-2.5-6-.2-13.3,4.4-17.5,2.3-2.1,5-3.4,7.9-3.9-1.4-3.8-4.2-7.1-7.9-8.6-.3-.1-.6-.2-.9-.4Z"/>
          <path class="cls-41" d="M711.2,537.5c0,0,.1,0,.2,0-1.9-6.7.2-14.5,8.5-17.6-2.1-7.4-9.3-13.5-18.7-10.1-17.9,6.4-8,34.2,10,27.8Z"/>
          <path class="cls-19" d="M316.1,341.8c-1.7-1.1-3.3-2.1-4.9-3.3-28-13-42.9-43-42.6-72.4,40.4-41.4,90.6-74.5,148.7-95.3,3.1-1.1,6.2-2,9.3-3.1,3.1.9,6.1,2,9.1,3.2-8.5-5.8-18-10.2-28-13.3-3.1,1-6.2,2-9.3,3.1-58.1,20.8-108.3,53.9-148.7,95.3-.2,29.4,14.6,59.4,42.6,72.4,7.3,5.3,15.4,9.7,23.8,13.3Z"/>
          <path class="cls-20" d="M175.3,534.5c.2.1.4.3.6.4,0,0,0,0,0,0-.2-.1-.5-.3-.7-.4Z"/>
          <path class="cls-17" d="M623.8,451.2c-1.5-16.7,2.8-30.3,12.5-43.8,11.5-16,32.7-20.1,50.8-14.9-.4-.4-.8-.8-1.2-1.1-19.3-15.5-52.8-15.7-68.5,6-9.7,13.5-13.9,27.1-12.5,43.8,1.1,12.9,5.4,24.8,13.7,34.8,7.4,9,16.5,15.6,27.1,18.4-2.9-2.5-5.6-5.2-8.2-8.3-8.3-10-12.6-21.9-13.7-34.8Z"/>
        </g>
        <g>
          <path class="cls-18" d="M451.5,668.1c2-6.3,1.9-11.7.6-18-.5-2.3-1.2-4.4-2-6.3-2.9-10.9-9.7-19.9-18.1-27.7,1.6,3.1,3,6.2,3.9,9.6.8,1.9,1.5,4,2,6.3,1.3,6.3,1.4,11.7-.6,18-3,9.3-9.3,15.8-17.2,19.8-12.5,8.3-29.8,10-43.8,6.3-7.5-2-15-4-21.6-8.1-6.1-3.8-12.1-7.6-17.9-11.7,2.7,6.9,7.1,13.1,13.6,17.7,6,4.3,12.3,8.3,18.6,12.2,6.6,4.1,14.1,6.1,21.6,8.1,14,3.7,31.3,2,43.8-6.3,7.9-3.9,14.2-10.5,17.2-19.8Z"/>
          <path class="cls-49" d="M333.7,537.2c1.7,10.9-5.4,22.4-15.7,26.1-6.1,2.2-12.3,1.6-17.6-.8.2,1.5.6,3,1.2,4.5,4.9,12,17.9,19,30.6,14.4,11.8-4.2,19.3-18.6,14.4-30.6-2.5-6.2-7.3-11-13-13.6Z"/>
          <path class="cls-48" d="M382.5,728.4c-1,3.5-3.6,6.7-8.1,8.3-1.1.4-2.1.6-3.1.8-1.3,4.6-.1,9.8,2.9,13.5,3.1-3.9,6.6-7.4,10.9-10.6,2.8-2.1,6.3-4.1,9.8-5.8-2.5-4-6.9-6.8-12.4-6.1Z"/>
          <path class="cls-50" d="M544,771.2c.1,6.7-3.2,13.3-11.4,16.2-3.3,1.2-6.4,1.3-9.1.8.2,11,9.9,22.1,23.4,17.3,18.3-6.5,12.4-31.5-2.9-34.3Z"/>
          <path class="cls-44" d="M279.1,544c1.7-3.5,2.6-7.1,2.8-10.9.2-3.2-.2-6.4-1.2-9.5-.7-2.1-6.6-13.3-.6-1.2-2.9-5.8-5.8-10.5-11.5-14.1-.5-.3-1.2-.6-1.8-1,.6,2.5.9,5.1.8,7.7-.2,3.8-1.1,7.4-2.8,10.9-5.4,10.9-18.5,18.6-30.8,15.7-5.8-1.4-12.4-3.6-18.1-7,.6,3.1,1.8,6,3.7,8.8,6,8.9,18.5,13.9,28.6,16.3,12.3,2.9,25.4-4.8,30.8-15.7Z"/>
          <path class="cls-43" d="M470,425.7c1.9,8.9,3.8,16.4,3.3,25.6-.3,6.3-.3,6.1-.9,9.9-.3,2-.6,3.9-.8,5.9-.8,8.3-2.8,16.1-6.2,23.8-6.4,14.7-17.3,25.5-31.2,32.7-19.7,10.2-41.1,9.9-61.2,1.1-6.1-2.7-11.6-6.3-16.4-10.5,6.7,12.3,17,22.7,30.6,28.7,20.1,8.8,41.5,9.1,61.2-1.1,13.9-7.2,24.8-18,31.2-32.7,3.4-7.8,5.3-15.6,6.2-23.8.2-2,.5-3.9.8-5.9.6-3.8.6-3.6.9-9.9.5-9.2-1.4-16.6-3.3-25.6-3.6-10.1-9.5-18.6-17.5-25.7,1.2,2.4,2.3,4.9,3.3,7.5Z"/>
          <path class="cls-47" d="M490,742.7c.4,0,.9,0,1.3,0,10.4-.4,17.2-11.8,13.8-21.2-2.1-5.8-7.7-9.8-13.6-10.4-1.1,7-6.8,13.2-14.4,13.6-.4,0-.9,0-1.3,0-.6,0-1.2-.2-1.8-.2-1.5,9,5,18.8,16,18.3Z"/>
          <path class="cls-46" d="M546,491.6c18.5-6.6,12.8-31.8-2.7-35,.3,6.9-3.1,13.8-11.6,16.9-3.5,1.3-6.7,1.4-9.6.8.4,11.1,10.2,22.2,23.8,17.3Z"/>
          <path class="cls-13" d="M833.4,279.8s0,0,0,0c-8.7,20.9-28.3,37.4-54.2,40.4-29.7,3.5-61.9,3.7-84.6-16.7,1.5,2.7,3.1,5.3,4.8,7.7,22.5,30.7,59.8,31.1,93.9,27.1,25.9-3.1,45.5-19.5,54.2-40.4-4.6-6.2-9.4-12.3-14.3-18.2Z"/>
          <path class="cls-14" d="M799.8,680.7c-.1-.2-.2-.4-.3-.6h0c0,.2.2.4.3.6Z"/>
          <path class="cls-42" d="M857.1,353.2c0,6.4-3.3,12.7-11.1,15.5-3.1,1.1-6,1.3-8.6.8,0,10.8,9.6,22,22.9,17.3,18-6.4,12.1-31.1-3.1-33.6Z"/>
          <path class="cls-36" d="M221.8,468.2c32.1,5.4,63.6-16.9,69.9-48.7,4.3-22-4.6-44.7-21-59.3,6.7,12.5,9.6,27,6.8,41.2-6.2,31.8-37.8,54.1-69.9,48.7-10.1-1.7-19.6-6.3-27.5-12.9,1.2,2.5,2.5,5,4.2,7.3,8.7,12.4,22.6,21.2,37.5,23.6Z"/>
          <path class="cls-38" d="M660.5,495.7c17.6-1.3,30.4-11.8,38.8-26.7,13.7-24.3,8.8-59.8-13.3-77.6,9.1,18.4,9,41.9-.9,59.5-8.4,14.8-21.2,25.4-38.8,26.7-13.5,1-24.9-3.8-34.3-12.1,1.9,3.6,4,7.2,6.7,10.4,10.7,12.9,24.5,21,41.8,19.7Z"/>
          <path class="cls-39" d="M382,392.6c.4-.2.8-.4,1.2-.6.3-8.3-5.1-16.6-14.2-18.4,0,3.8-1.2,7.6-3.9,10.9-.2.3-.5.6-.7.9-4.7,5.7-11.9,7.4-18.4,5.9,0,2.2.1,4.4.9,6.5,1.5,4.2,4.5,7.3,8,9.4,2.1-1.9,4.3-3.7,6.7-5.3,6-4,13-7.3,20.4-9.3Z"/>
          <path class="cls-34" d="M556.9,373.2c-3,9.3-8.4,16.5-16.1,22.4-9.4,7.2-21.9,8.5-33.2,7.2-9-1-17.6-5.4-24.7-11.5,1,2,1.9,4,3.1,5.7,7.9,11.8,21.4,22.2,35.8,23.8,11.3,1.3,23.8,0,33.2-7.2,7.7-5.9,13.1-13.2,16.1-22.4,5.9-18.2-.7-37.3-15.5-48.5,4,9.3,4.7,20,1.3,30.4Z"/>
          <path class="cls-35" d="M450.8,190.4c6.9,20,5.5,39.9,3.3,60.7-2.2,20.7-9.9,40.5-23.8,56.1-23.2,26-56.8,31.7-89.7,27.3-20.3-2.7-44-10.8-62.4-24.1-6.7-3.1-12.6-7.2-17.7-12,7.2,12.8,17.9,23.6,32,30.1,18.4,13.4,42.1,21.4,62.4,24.1,32.9,4.4,66.5-1.3,89.7-27.3,13.9-15.6,21.6-35.4,23.8-56.1,2.3-20.8,3.6-40.6-3.3-60.7-4-11.8-10.9-21.5-19.4-29.4,2,3.6,3.8,7.3,5.1,11.3Z"/>
          <path class="cls-37" d="M720.3,849.4c-13.8,8.3-28.2,15.7-43.2,22.4-.1,0-.3-.2-.4-.3.3.9.4,1.8.7,2.7,2.8,6.9,7.8,12.3,13.9,15.7,15-6.7,29.4-14.1,43.2-22.4.6-4.4.2-8.9-1.5-13.2-2.7-6.6-7.5-11.9-13.3-15.4.9,3.4,1.1,7,.6,10.4Z"/>
          <path class="cls-52" d="M666.9,598.6c-1-17.6-7.9-34.6-22.9-48.7,5.3,9.7,8.1,20,8.7,30.6,13.3,27.5,4.1,65.6-21.8,82.3-37,23.9-89.2,42.4-124.2,9.3,1.2,2.2,2.5,4.3,3.9,6.3,34.3,48.8,93.8,28.9,134.6,2.5,25.8-16.7,35.1-54.8,21.8-82.3Z"/>
          <path class="cls-45" d="M654.8,708.5c0,1.2,0,2.4-.2,3.6,0,.4-.1.8-.2,1.2-1.9,11.1-13.5,17.6-23.9,15,.3,7,4.2,13.8,10.9,17,11,5.2,25.1-1.6,27.2-13.9,0-.4.1-.8.2-1.2,1.4-8-2.8-17.3-10.5-20.6-1.1-.5-2.3-.8-3.5-1.1Z"/>
          <path class="cls-51" d="M846.1,687.1c3.7,10.3,3.7,21.3,2.6,32-.2,2-.6,4-1.1,6.1-10.9,17-23.1,33.3-36.6,48.5-11.2,6.7-24.4,11.1-37.1,11.7-20.6,1-40.2-5.8-55.1-19.6,2.5,4.8,5.8,9.4,9.8,13.8,15.3,16.7,36.9,25.1,59.6,23.9,12.7-.6,26-5,37.1-11.7,13.5-15.2,25.7-31.5,36.6-48.5.5-2.1.8-4.1,1.1-6.1,1.1-10.7,1.1-21.7-2.6-32-3.5-9.8-9.6-18.2-17.4-24.9,1.1,2.2,2.3,4.4,3.1,6.8Z"/>
          <path class="cls-33" d="M909.9,506.5c.8,46-6.6,91.3-21.2,133.9-10.8-.7-21.3-4-30.1-9.5-2.5-1.6-4.9-3.5-7.1-5.5,5.1,9.6,12.5,17.9,21.4,23.6,8.7,5.6,19.3,8.8,30.1,9.5,16.6-48.3,23.9-99.9,20.5-152.2-4.7-.7-9.2-.6-13.5.2Z"/>
          <path class="cls-55" d="M858.8,477.1c2.5-13.2-1.6-25.1-9.5-34.9.6.6,1.1,1.2,1.7,1.8-.8-.8-1.4-1.8-2-2.7-2.7-3.6-5.4-6.4-8.4-8.9,4.1,8,5.8,16.9,4,26.5-2.8,15.1-13.4,26.7-27.5,32.3-15,5.9-31.7,4.4-45.2-4.2-2-1.3-3.8-2.7-5.6-4.2,4.3,9.2,11.2,16.8,19.8,22.3,13.5,8.7,30.2,10.1,45.2,4.2,14.1-5.6,24.7-17.2,27.5-32.3Z"/>
          <path class="cls-53" d="M643.3,783.7c-2.6-3.6-6-6.4-9.8-8.5.4,1.7.8,3.5.9,5.3,1,15.8-11.2,31-27.4,31.9-.5,0-1,0-1.6,0-6,.3-11.5-1.2-16.3-3.9.2.9.4,1.8.8,2.7,5,12.1,16.4,20.1,29.8,19.3.5,0,1,0,1.6,0,16.2-.9,28.4-16.1,27.4-31.9-.3-5.4-2.2-10.5-5.3-14.9Z"/>
          <path class="cls-58" d="M593.8,864.4c4.2,10.4,3,24.4-1.7,34.4,0,0,0,0,0,0-23.6,4.6-47.2,6.9-70.7,7.2.4,2.4,1,4.7,1.9,6.8,1.6,4,3.9,7.8,6.5,11.4,25.4,0,51-2.3,76.5-7.3,0,0,0,0,0,0,4.7-10,5.9-24,1.7-34.4-3.4-8.2-8.6-15.9-15.8-21.2.5,1.1,1.1,2.1,1.6,3.1Z"/>
          <path class="cls-61" d="M706.2,508.8c-.8,4.5-3.6,8.6-9.2,10.6-1.7.6-3.4.8-5,.9-1.7,9.9,6.9,21.7,19.2,17.2,16.1-5.8,9.6-28.9-5-28.7Z"/>
          <path class="cls-59" d="M777.3,571.7c2,15.4-8.8,29.1-24.9,31.2-6.9.9-14-.8-20-4.2,1.1,3.4,2.6,6.7,4.6,9.5,6.6,9.1,18.3,14.2,29.5,12.8,16.1-2,26.9-15.7,24.9-31.2-.4-2.9,0-4.2-1.6-9-1.5-4.5-3.7-7.5-6.4-10.5.5.6,1,1.1,1.5,1.7-1.8-2.4-4.1-5-6.4-6.9-.9-.7-1.9-1.2-2.9-1.8,1.4,4.3,1.1,5.7,1.5,8.5Z"/>
          <path class="cls-60" d="M618.6,234.4c-4,18.5-17.8,37.9-36.6,43.6-8.8,2.7-18.2,3.7-27.4,2.1-6.9-1.2-13.7-4.3-19.5-8.7.6,1.1,1.1,2.3,1.7,3.4.2.3.3.6.5.9h0c6.1,11.7,18.8,20.3,31.5,22.5,9.1,1.6,18.6.6,27.4-2.1,18.9-5.7,32.6-25,36.6-43.6,3.5-16,0-34.2-9.5-47.6-3.1-4.3-6.5-8.1-10.2-11.3,6.4,12.4,8.4,27.4,5.5,40.8Z"/>
          <path class="cls-54" d="M659.1,317.3c-.2.3-.3.6-.5.8-3.6,6.7-10.4,9.6-16.7,8.9-.4,2.6-.4,5.3.6,7.8,5.5,13.4,23.4,14.2,30.3,1.5.2-.3.3-.6.5-.8,3.8-7.1,0-17.6-7.4-20.7-.3-.1-.6-.2-.9-.4-1.5-.6-3.1-1-4.7-1.3-.2,1.5-.6,2.9-1.3,4.2Z"/>
          <path class="cls-62" d="M499.2,803.1c-1.8-16.9-9.8-32.4-22.1-43.1,4.1,7.6,6.9,16.1,7.8,25,3.4,31.8-16.1,61.8-45.7,73.1-9.5,3.6-22.1,4.6-32,2.8-5.5-1-11.3-2.9-16.4-5.2-4-1.8-7.6-4.1-10.8-6.8,5.4,10.7,13.8,19.8,25,24.9,5.1,2.3,10.9,4.2,16.4,5.2,9.9,1.8,22.5.9,32-2.8,29.5-11.3,49.1-41.3,45.7-73.1Z"/>
          <path class="cls-56" d="M193.2,559.3c9.2,27.1-4.9,54.7-30.9,65.4-4,1.7-8.2,2.5-12.5,2.9,1.5,6,3.2,12.1,5,18.1,7.3.8,14.7,0,21.7-2.9,26-10.7,40.1-38.2,30.9-65.4-2.8-8.2-4.1-14.2-9.3-22.3-3.1-4.7-6.7-8.5-10.7-11.9,2.6,5.3,3.8,10.1,5.9,16.1Z"/>
          <path class="cls-57" d="M292.7,679c15,22.4,27.8,52.4,23.8,77.5-4.7,29.7-26.9,50.5-53.7,56.6-17.3-14.6-33.4-30.9-48.1-48.6,18.3,24.8,39.2,47.2,62.3,66.7,26.8-6.1,48.9-26.9,53.7-56.6,4.7-29.8-14.1-66.3-32.2-89.1-1.8-2.3-3.8-4.5-5.9-6.5Z"/>
        </g>
        <path class="cls-2" d="M675.9,165.6c35.5,35.1,63.9,78.5,81.9,128.7,64.1,179.1-29,376.3-208.1,440.4-154.4,55.3-322.2-6.4-406.6-139.2,3.8,22.8,9.6,45.6,17.7,68.2,73.2,204.5,298.3,310.8,502.8,237.6,204.5-73.2,310.8-298.3,237.6-502.8-39.7-110.7-123.9-192.6-225.2-232.8Z"/>
        <path class="cls-1" d="M868.7,321c7.4,49.4,4.2,101.2-11.4,152.1-55.8,181.9-248.5,284-430.3,228.2-156.8-48.1-254.2-198-242.4-354.9-10.6,20.6-19.6,42.3-26.7,65.2-63.7,207.6,52.9,427.6,260.5,491.3,207.6,63.7,427.6-52.9,491.3-260.5,34.5-112.4,16-228.4-41-321.3Z"/>
        <path class="cls-69" d="M693.7,305.8c40.3,112.4-18.2,236.3-130.7,276.5-112.4,40.3-236.3-18.2-276.5-130.7-40.3-112.4,18.2-236.3,130.7-276.5,112.4-40.3,236.3,18.2,276.5,130.7Z"/>
      </g>
    </g>
  </g>
</svg>